<svg xmlns="http://www.w3.org/2000/svg" width="52" height="52" viewBox="0 0 52 52">
    <g fill="none" fill-rule="evenodd">
        <path fill="#FFF" stroke="#D3E0FF" d="M7 .5A6.5 6.5 0 0 0 .5 7v38A6.5 6.5 0 0 0 7 51.5h38a6.5 6.5 0 0 0 6.5-6.5V7A6.5 6.5 0 0 0 45 .5H7z"/>
        <g transform="translate(11 11)">
            <circle cx="20.625" cy="9.375" r="9.375" fill="#FFF" stroke="#0061FF"/>
            <g fill="#0061FF" fill-rule="nonzero">
                <path d="M24.455 12.115l1.527-3.71a2.872 2.872 0 0 0-.223-2.624 2.64 2.64 0 0 0-2.238-1.254H17.98a.45.45 0 0 0-.408.26L16.68 6.64a.485.485 0 0 0 .021.45.451.451 0 0 0 .382.218h6.422l-1.516 3.704h-6.683a.45.45 0 0 0-.408.26l-.886 1.858a.485.485 0 0 0 .021.451.451.451 0 0 0 .382.217h7.579a2.666 2.666 0 0 0 2.46-1.683zm-8.862-.169h6.406c.36 0 .69-.223.827-.565l1.528-3.71a.952.952 0 0 0-.074-.869.875.875 0 0 0-.754-.418h-5.711l.445-.929h5.261c.6 0 1.156.316 1.48.831.334.522.387 1.185.148 1.755l-1.527 3.71a1.763 1.763 0 0 1-1.628 1.118h-6.847l.446-.923z"/>
                <path d="M18.388 10.295l.89-1.852a.485.485 0 0 0-.02-.451.451.451 0 0 0-.383-.217h-4.45a.45.45 0 0 0-.407.26l-.891 1.853a.485.485 0 0 0 .02.45.451.451 0 0 0 .383.218h4.45c.169 0 .328-.098.408-.261zm-4.132-.668l.446-.929h3.442l-.446.929h-3.442z"/>
            </g>
            <circle cx="11.25" cy="18.75" r="11.25" fill="#FFF" stroke="#0061FF"/>
            <g fill="#0061FF" fill-rule="nonzero">
                <path d="M9.658 22.647h3.639a1.7 1.7 0 0 0 1.698-1.703 1.7 1.7 0 0 0-1.698-1.703H9.658a.486.486 0 0 0-.485.487v2.432c0 .269.218.487.485.487zm.486-2.433h3.153a.729.729 0 0 1 0 1.46h-3.153v-1.46z"/>
                <path d="M6.263 24.593h.97v.973c0 .269.217.487.485.487h1.94a.486.486 0 0 0 .486-.487v-.973h.97v.973c0 .269.217.487.485.487h1.94a.486.486 0 0 0 .486-.487v-1.047a3.637 3.637 0 0 0 2.73-2.435 3.651 3.651 0 0 0-.762-3.584 3.4 3.4 0 0 0 .217-2.958 3.384 3.384 0 0 0-2.185-1.998V12.43a.486.486 0 0 0-.485-.487H11.6a.486.486 0 0 0-.486.487v.973h-.97v-.973a.486.486 0 0 0-.485-.487H7.718a.486.486 0 0 0-.485.487v.973h-.97a.486.486 0 0 0-.486.486v1.946c0 .27.218.487.486.487h.97v.973h-.97a.486.486 0 0 0-.486.487v1.946c0 .268.218.486.486.486h.97v1.46h-.97a.486.486 0 0 0-.486.486v1.946c0 .27.218.487.486.487zm.485-1.946h.97a.486.486 0 0 0 .485-.487v-2.432a.486.486 0 0 0-.485-.487h-.97v-.973h.97a.486.486 0 0 0 .485-.486v-1.947a.486.486 0 0 0-.485-.486h-.97v-.973h.97a.486.486 0 0 0 .485-.487v-.973h.97v.973c0 .27.218.487.485.487H11.6a.486.486 0 0 0 .485-.487v-.973h.97v1.014c0 .238.171.44.405.48.837.138 1.54.706 1.852 1.497.312.79.187 1.687-.33 2.362a.488.488 0 0 0 .067.662 2.677 2.677 0 0 1 .782 2.857 2.665 2.665 0 0 1-2.327 1.824.486.486 0 0 0-.449.485v.982h-.97v-.973a.486.486 0 0 0-.485-.486H9.66a.486.486 0 0 0-.486.486v.973h-.97v-.973a.486.486 0 0 0-.485-.486h-.97v-.973z"/>
                <path d="M9.658 18.268h3.396c.804 0 1.456-.653 1.456-1.46 0-.806-.652-1.46-1.456-1.46H9.658a.486.486 0 0 0-.485.487v1.947a.487.487 0 0 0 .485.486zm.486-1.946h2.91a.486.486 0 0 1 0 .973h-2.91v-.973z"/>
            </g>
        </g>
    </g>
</svg>
