<svg xmlns="http://www.w3.org/2000/svg" width="52" height="52" viewBox="0 0 52 52">
    <g fill="none" fill-rule="evenodd">
        <path fill="#FFF" stroke="#D3E0FF" d="M7 .5A6.5 6.5 0 0 0 .5 7v38A6.5 6.5 0 0 0 7 51.5h38a6.5 6.5 0 0 0 6.5-6.5V7A6.5 6.5 0 0 0 45 .5H7z"/>
        <g fill="#0061FF" transform="translate(12 14)">
            <ellipse cx="26.593" cy="2.494" rx="1" ry="1"/>
            <ellipse cx="26.593" cy="13.516" rx="1" ry="1"/>
            <ellipse cx="2.407" cy="2.494" rx="1" ry="1"/>
            <ellipse cx="2.407" cy="13.516" rx="1" ry="1"/>
            <path fill-rule="nonzero" d="M6.23 5.36c-.889 0-1.612.735-1.612 1.638 0 .904.723 1.638 1.612 1.638.89 0 1.613-.734 1.613-1.638 0-.903-.723-1.638-1.613-1.638zm0 2.413a.77.77 0 0 1-.762-.775.77.77 0 0 1 .762-.775.77.77 0 0 1 .763.775.77.77 0 0 1-.763.775zM22.77 5.36c-.89 0-1.613.735-1.613 1.638 0 .904.723 1.638 1.613 1.638.889 0 1.612-.734 1.612-1.638 0-.903-.723-1.638-1.612-1.638zm0 2.413a.77.77 0 0 1-.763-.775.77.77 0 0 1 .763-.775.77.77 0 0 1 .763.775.77.77 0 0 1-.763.775z"/>
            <path stroke="#0061FF" stroke-width=".1" d="M27.41.048H1.59C.713.048 0 .773 0 1.664v20.84c0 .89.713 1.615 1.59 1.615h21.892a.428.428 0 0 0 .424-.431.428.428 0 0 0-.424-.432h-3.667V21.4h7.595c.254 0 .514-.064.74-.186v1.29a.747.747 0 0 1-.74.752h-2.23a.428.428 0 0 0-.424.432c0 .238.19.431.425.431h2.229c.877 0 1.59-.724 1.59-1.615V1.664c0-.891-.713-1.616-1.59-1.616zm-7.595 2.877h4.458a5.013 5.013 0 0 0 1.895 1.926v6.309a5.013 5.013 0 0 0-1.895 1.925h-4.458V2.925zm-10.63 20.33H1.59a.747.747 0 0 1-.74-.751v-1.29l.016.008c.223.117.473.178.724.178h7.595v1.856zm0-5.437H5.432a.428.428 0 0 0-.425.432c0 .238.19.431.425.431h3.753v1.856H1.59a.746.746 0 0 1-.74-.752v-1.29c0 .009.062.032.071.036.209.099.439.15.669.15h2.143a.428.428 0 0 0 .425-.431.428.428 0 0 0-.425-.432H1.59a.76.76 0 0 1-.74-.752v-1.29c.226.122.484.186.74.186h7.595v1.856zm0-4.733H4.727a5.014 5.014 0 0 0-1.895-1.925V4.85a5.013 5.013 0 0 0 1.895-1.925h4.458v10.16zm0-11.023H4.471a.424.424 0 0 0-.381.242 4.145 4.145 0 0 1-1.87 1.899.432.432 0 0 0-.238.387v6.83c0 .165.093.315.238.388a4.145 4.145 0 0 1 1.87 1.899c.071.148.219.241.38.241h4.715V15.1H1.59a.747.747 0 0 1-.74-.752V1.664c0-.415.332-.753.74-.753h7.595v1.151zm9.78 21.194h-8.93v-7.294h8.93v7.294zm0-8.157h-8.93V.911h8.93V15.1zm9.185 4.686a.747.747 0 0 1-.74.752h-7.595v-1.856h7.595c.257 0 .513-.064.74-.186v1.29zm0-2.719a.747.747 0 0 1-.74.752h-7.595v-1.856h7.595a1.546 1.546 0 0 0 .74-.186v1.29zm0-2.72a.747.747 0 0 1-.74.753h-7.595v-1.15h4.714c.162 0 .31-.094.381-.242a4.145 4.145 0 0 1 1.87-1.9.432.432 0 0 0 .238-.387V4.59a.432.432 0 0 0-.238-.387 4.144 4.144 0 0 1-1.87-1.9.424.424 0 0 0-.38-.24h-4.715V.911h7.595c.408 0 .74.337.74.752v12.683z"/>
        </g>
    </g>
</svg>
