<svg xmlns="http://www.w3.org/2000/svg" width="52" height="52" viewBox="0 0 52 52">
    <g fill="none" fill-rule="evenodd">
        <path fill="#FFF" stroke="#D3E0FF" d="M7 .5A6.5 6.5 0 0 0 .5 7v38A6.5 6.5 0 0 0 7 51.5h38a6.5 6.5 0 0 0 6.5-6.5V7A6.5 6.5 0 0 0 45 .5H7z"/>
        <g fill="#0061FF">
            <path d="M30.773 24.512a.512.512 0 1 0-1.024 0 .512.512 0 0 0 1.024 0"/>
            <path d="M35.743 36.826H15.916v-1.76c0-.324.262-.587.583-.587h18.66c.322 0 .584.263.584.587v1.76zm-15.5-14.023a2.919 2.919 0 0 1 2.868-2.41h5.437a2.92 2.92 0 0 1 2.869 2.408l1.861 10.504H18.381l1.861-10.502zM35.16 33.305h-.697l-1.898-10.712a4.088 4.088 0 0 0-4.017-3.373h-5.437a4.087 4.087 0 0 0-4.016 3.375l-1.899 10.71h-.697c-.964 0-1.749.79-1.749 1.76v2.348c0 .324.261.587.583.587h20.993a.585.585 0 0 0 .583-.587v-2.347c0-.971-.785-1.761-1.75-1.761z"/>
            <path d="M32.127 31.516l-.866-4.652a.589.589 0 0 0-.685-.464.577.577 0 0 0-.476.67l.866 4.652a.59.59 0 0 0 .686.464.577.577 0 0 0 .475-.67M41.421 23h-4.978c-.32 0-.58.23-.58.512 0 .283.26.512.58.512h4.978c.32 0 .579-.229.579-.512 0-.283-.26-.512-.579-.512M10 23.512c0 .283.26.512.579.512h4.978c.32 0 .58-.229.58-.512 0-.283-.26-.512-.58-.512H10.58c-.32 0-.579.23-.579.512M36.399 13.267a.578.578 0 0 0-.819 0l-3.274 3.28a.58.58 0 0 0 .818.82l3.275-3.28a.58.58 0 0 0 0-.82M15.601 13.267a.58.58 0 0 0 0 .82l3.275 3.28a.578.578 0 1 0 .818-.82l-3.274-3.28a.578.578 0 0 0-.819 0M26.34 14.224V9.58c0-.32-.228-.58-.51-.58-.283 0-.512.26-.512.58v4.644c0 .32.23.58.512.58.282 0 .51-.26.51-.58"/>
        </g>
    </g>
</svg>
