<svg xmlns="http://www.w3.org/2000/svg" width="52" height="52" viewBox="0 0 52 52">
    <g fill="none" fill-rule="evenodd">
        <path fill="#FFF" stroke="#D3E0FF" d="M7 .5A6.5 6.5 0 0 0 .5 7v38A6.5 6.5 0 0 0 7 51.5h38a6.5 6.5 0 0 0 6.5-6.5V7A6.5 6.5 0 0 0 45 .5H7z"/>
        <g fill="#0061FF">
            <path d="M35.252 35.876c-3.645 0-6.61-2.9-6.61-6.464 0-3.565 2.965-6.464 6.61-6.464 3.645 0 6.61 2.9 6.61 6.464 0 3.564-2.965 6.464-6.61 6.464zM24.496 26.82h3.008v-1.023h-3.008v1.023zm-7.748 9.056c-3.645 0-6.61-2.9-6.61-6.464 0-3.564 2.965-6.464 6.61-6.464 3.645 0 6.61 2.9 6.61 6.464 0 3.564-2.966 6.464-6.61 6.464zm4.624-20.467c.216-.189.495-.296.794-.296.657 0 1.192.523 1.192 1.166v.578a5.074 5.074 0 0 0-1.986-1.448zm3.124 9.275h3.008v-3.31h-3.008v3.31zm4.146-8.405c0-.643.535-1.166 1.192-1.166.3 0 .58.108.794.296a5.076 5.076 0 0 0-1.986 1.448v-.578zm7.259 1.692c.068.108 1.49 2.44 2.858 4.686a7.841 7.841 0 0 0-3.507-.822 7.788 7.788 0 0 0-6.61 3.628v-5.484c0-2.114 1.759-3.834 3.92-3.834 1.37 0 2.619.683 3.339 1.826zm.969-.584c-.93-1.474-2.54-2.354-4.308-2.354a5.173 5.173 0 0 0-.744.052A2.33 2.33 0 0 0 29.834 14c-1.284 0-2.33 1.022-2.33 2.279v3.982h-3.008v-3.982c0-1.257-1.046-2.279-2.33-2.279-.813 0-1.553.404-1.985 1.086a5.176 5.176 0 0 0-.743-.053c-1.768 0-3.379.88-4.308 2.354-.013.02-.052.083-.988 1.618a.55.55 0 0 0 .197.763c.27.157.62.071.78-.193.77-1.263.958-1.57.98-1.604a3.917 3.917 0 0 1 3.339-1.826c2.161 0 3.92 1.72 3.92 3.834v5.484a7.788 7.788 0 0 0-6.61-3.628 7.842 7.842 0 0 0-3.507.822l.843-1.384a.55.55 0 0 0-.197-.763.576.576 0 0 0-.78.193c-1.21 1.983-3.112 4.958-3.353 5.45A7.394 7.394 0 0 0 9 29.412c0 4.178 3.476 7.577 7.748 7.577s7.748-3.4 7.748-7.577v-1.479h3.008v1.479c0 4.178 3.476 7.577 7.748 7.577S43 33.589 43 29.412a7.393 7.393 0 0 0-.795-3.34c-.232-.462-5.21-8.484-5.335-8.685z"/>
            <path d="M40.196 27.744a.588.588 0 0 0-.74-.33.541.541 0 0 0-.35.701c.165.434.249.89.249 1.357 0 2.212-1.899 4.012-4.233 4.012-2.334 0-4.233-1.8-4.233-4.012 0-2.212 1.899-4.011 4.233-4.011a4.36 4.36 0 0 1 3.1 1.28.601.601 0 0 0 .817.027.529.529 0 0 0 .03-.775c-1.017-1.036-2.455-1.63-3.947-1.63-2.972 0-5.39 2.292-5.39 5.11 0 2.816 2.418 5.108 5.39 5.108 2.972 0 5.39-2.292 5.39-5.109 0-.593-.106-1.174-.316-1.728M16.728 33.484c-2.334 0-4.233-1.8-4.233-4.012 0-2.212 1.899-4.011 4.233-4.011 2.334 0 4.233 1.8 4.233 4.011 0 2.212-1.9 4.012-4.233 4.012m0-9.12c-2.972 0-5.39 2.291-5.39 5.108 0 2.817 2.418 5.109 5.39 5.109 2.972 0 5.39-2.292 5.39-5.109s-2.418-5.108-5.39-5.108"/>
        </g>
    </g>
</svg>
