<svg xmlns="http://www.w3.org/2000/svg" width="52" height="52" viewBox="0 0 52 52">
    <g fill="none" fill-rule="evenodd">
        <path fill="#FFF" stroke="#D3E0FF" d="M7 .5A6.5 6.5 0 0 0 .5 7v38A6.5 6.5 0 0 0 7 51.5h38a6.5 6.5 0 0 0 6.5-6.5V7A6.5 6.5 0 0 0 45 .5H7z"/>
        <g stroke="#0061FF" stroke-linejoin="round">
            <path d="M36.14 25.166C40.324 21.983 40.22 15.084 39.816 13c-.14.303-4.997 10.697-13.816 12.006.67.694 4.356 4.022 10.14.16z"/>
            <path d="M28.523 15.46c-3.22 1.902-3.645 4.686-3.498 6.54 7.537-.774 13.808-8.71 13.978-8.928-.05-.019-5.294-.676-10.48 2.388z"/>
        </g>
        <path stroke="#0061FF" d="M10.005 35.79c0-.32.005-.638-.002-.958a9.548 9.548 0 0 1 .133-1.84c.176-1.021.497-1.986 1.021-2.876.88-1.497 2.12-2.596 3.683-3.335a7.804 7.804 0 0 1 2.18-.675c.396-.06.792-.11 1.195-.106 1.71.013 3.304.436 4.741 1.382 1.41.927 2.468 2.154 3.104 3.729.299.741.482 1.514.58 2.307.106.874.112 1.752.095 2.632-.009.474-.007.948-.014 1.423a2.506 2.506 0 0 1-.066.615c-.213.785-1.11 1.145-1.766.709-.294-.194-.44-.479-.492-.818a4.341 4.341 0 0 1-.055-.69v-2.865c0-.375-.116-.707-.371-.982-.447-.48-1.131-.499-1.632-.055-.28.25-.408.567-.436.932-.01.137-.014.274-.014.411-.002 1.053.002 2.105-.006 3.158-.005.597-.459 1.053-1.065 1.095a1.128 1.128 0 0 1-1.195-.937 2.859 2.859 0 0 1-.036-.482V34.39a1.32 1.32 0 0 0-.37-.935c-.5-.527-1.255-.51-1.741.032a1.324 1.324 0 0 0-.343.925c0 1.046-.002 2.093 0 3.139 0 .27-.032.534-.143.783-.194.43-.598.682-1.068.666-.446-.014-.823-.296-.994-.745a1.54 1.54 0 0 1-.097-.553c.002-1.013.002-2.025-.002-3.038 0-.225-.01-.452-.076-.668-.153-.499-.485-.817-.997-.9-.52-.086-.906.16-1.196.58-.139.2-.184.427-.184.666l.002 2.884c0 .283.006.566-.059.845-.105.463-.55.97-1.222.92-.462-.035-.906-.418-1.036-.909a2.128 2.128 0 0 1-.06-.533c.005-.59.005-1.174.004-1.758.001 0 0 0 0 0"/>
        <path fill="#0061FF" d="M39.233 31.538a.547.547 0 0 0-.758.153 12.256 12.256 0 0 1-5.158 4.413l.11-.219a.547.547 0 0 0-.976-.492l-.745 1.475a.547.547 0 0 0 .242.735l1.476.744a.546.546 0 1 0 .492-.977l-.353-.178a13.34 13.34 0 0 0 5.824-4.896.547.547 0 0 0-.154-.758zM21.674 14.78l-1.523-.639a.547.547 0 0 0-.424 1.009l.383.16a13.378 13.378 0 0 0-5.235 4.875.547.547 0 1 0 .93.573 12.292 12.292 0 0 1 4.6-4.366l-.086.205a.547.547 0 0 0 1.009.423l.639-1.523a.547.547 0 0 0-.293-.716z"/>
    </g>
</svg>
