<svg xmlns="http://www.w3.org/2000/svg" width="52" height="52" viewBox="0 0 52 52">
    <g fill="none" fill-rule="evenodd">
        <path fill="#FFF" stroke="#D3E0FF" d="M7 .5A6.5 6.5 0 0 0 .5 7v38A6.5 6.5 0 0 0 7 51.5h38a6.5 6.5 0 0 0 6.5-6.5V7A6.5 6.5 0 0 0 45 .5H7z"/>
        <g fill="#0061FF">
            <path d="M30.922 12c-5.006 0-9.078 4.072-9.078 9.078a.547.547 0 0 0 1.094 0c0-4.402 3.581-7.984 7.984-7.984 4.402 0 7.984 3.582 7.984 7.984 0 4.403-3.582 7.984-7.984 7.984a.547.547 0 0 0 0 1.094c5.006 0 9.078-4.072 9.078-9.078C40 16.072 35.928 12 30.922 12z"/>
            <path fill-rule="nonzero" d="M35.891 16.109a6.98 6.98 0 0 0-4.967-2.058 6.98 6.98 0 0 0-4.968 2.058 6.996 6.996 0 0 0-1.946 6.22 9.04 9.04 0 0 0-2.932-.485c-5.006 0-9.078 4.072-9.078 9.078C12 35.928 16.072 40 21.078 40c5.006 0 9.078-4.072 9.078-9.078a9.04 9.04 0 0 0-.486-2.933 7.028 7.028 0 0 0 6.221-1.945 7.033 7.033 0 0 0 0-9.935zM21.078 38.906c-4.402 0-7.984-3.582-7.984-7.984 0-4.403 3.582-7.984 7.984-7.984 4.403 0 7.984 3.581 7.984 7.984 0 4.402-3.581 7.984-7.984 7.984zm14.04-13.635a5.94 5.94 0 0 1-5.832 1.508.546.546 0 0 0-.143-.021 9.141 9.141 0 0 0-3.874-3.887 5.912 5.912 0 0 1 1.46-5.989 5.893 5.893 0 0 1 4.195-1.737c1.584 0 3.074.617 4.194 1.737a5.938 5.938 0 0 1 0 8.389z"/>
            <path d="M32.375 23.619c-.337.2-.7.303-1.078.303-.9 0-1.685-.587-2.102-1.455h1.672a.547.547 0 0 0 0-1.094h-1.972a3.425 3.425 0 0 1-.008-.533h2.546a.547.547 0 0 0 0-1.094h-2.288c.401-.928 1.215-1.565 2.152-1.565.378 0 .74.102 1.078.303a.547.547 0 1 0 .56-.94 3.207 3.207 0 0 0-1.638-.456c-1.53 0-2.835 1.112-3.315 2.658h-.577a.547.547 0 0 0 0 1.094h.386a4.526 4.526 0 0 0 .007.533h-.393a.547.547 0 0 0 0 1.094h.613c.506 1.488 1.785 2.548 3.28 2.548.568 0 1.135-.158 1.637-.456a.547.547 0 0 0-.56-.94zM37.815 31.11a.547.547 0 0 0-.729.258 12.256 12.256 0 0 1-4.494 5.088l.079-.232a.547.547 0 0 0-1.036-.352l-.531 1.565a.547.547 0 0 0 .342.694l1.564.531a.546.546 0 1 0 .352-1.036l-.375-.127a13.34 13.34 0 0 0 5.086-5.659.547.547 0 0 0-.258-.73zM20.342 13.87l-1.564-.532a.547.547 0 0 0-.352 1.036l.392.133a13.378 13.378 0 0 0-4.882 5.228.547.547 0 1 0 .969.507 12.292 12.292 0 0 1 4.283-4.676l-.071.21a.547.547 0 0 0 1.036.352l.531-1.565a.547.547 0 0 0-.342-.694zM26.048 25.952a6.98 6.98 0 0 0-4.968-2.057 6.98 6.98 0 0 0-4.968 2.057 6.964 6.964 0 0 0-1.99 3.995 7.08 7.08 0 0 0 .77 4.304.547.547 0 0 0 .964-.519c-1.233-2.286-.809-5.167 1.03-7.006a5.893 5.893 0 0 1 4.194-1.737c1.584 0 3.074.617 4.194 1.737a5.893 5.893 0 0 1 1.738 4.194 5.893 5.893 0 0 1-1.738 4.194c-1.838 1.84-4.72 2.263-7.006 1.03a.547.547 0 0 0-.52.963 7.074 7.074 0 0 0 4.305.771 6.964 6.964 0 0 0 3.995-1.99 6.98 6.98 0 0 0 2.057-4.968 6.98 6.98 0 0 0-2.057-4.968z"/>
            <path d="M16.885 35.112a.547.547 0 0 0-.774.003l-.004.004a.547.547 0 1 0 .776.771l.004-.004a.547.547 0 0 0-.002-.774z"/>
            <path fill-rule="nonzero" d="M21.625 30.406v-2.44c.513.187.875.63.875 1.144a.547.547 0 0 0 1.094 0c0-1.112-.844-2.045-1.97-2.277v-.253a.547.547 0 0 0-1.093 0v.253c-1.125.232-1.969 1.165-1.969 2.277 0 1.113.844 2.045 1.97 2.278v2.44c-.514-.187-.876-.63-.876-1.144a.547.547 0 0 0-1.094 0c0 1.112.844 2.045 1.97 2.277v.321a.547.547 0 0 0 1.093 0v-.32c1.125-.233 1.969-1.166 1.969-2.278 0-1.113-.844-2.045-1.97-2.278zm-1.094-.151c-.513-.188-.875-.63-.875-1.145s.362-.957.875-1.144v2.289zm1.094 3.573V31.54c.513.188.875.63.875 1.145 0 .514-.362.957-.875 1.144z"/>
        </g>
    </g>
</svg>
