<svg xmlns="http://www.w3.org/2000/svg" width="52" height="52" viewBox="0 0 52 52">
    <g fill="none" fill-rule="evenodd">
        <path fill="#FFF" stroke="#D3E0FF" d="M7 .5A6.5 6.5 0 0 0 .5 7v38A6.5 6.5 0 0 0 7 51.5h38a6.5 6.5 0 0 0 6.5-6.5V7A6.5 6.5 0 0 0 45 .5H7z"/>
        <g fill="#0061FF" stroke="#0061FF" stroke-width=".1">
            <path d="M12.36 18.758a.36.36 0 0 0 .36-.36v-1.877c0-.579.472-1.05 1.051-1.05h4.703a.36.36 0 0 0 0-.718h-4.703c-.977 0-1.771.793-1.771 1.768v1.877c0 .198.162.36.36.36M12.557 19.974a.238.238 0 0 0-.053-.026.115.115 0 0 1-.016-.006.185.185 0 0 0-.053-.018.384.384 0 0 0-.331.097.371.371 0 0 0 0 .51.37.37 0 0 0 .117.074c.047.02.092.03.142.03a.386.386 0 0 0 .256-.106.368.368 0 0 0 0-.506l-.06-.047-.002-.002zM21.419 36.195l.564-1.408a.11.11 0 0 1 .102-.069h7.83a.11.11 0 0 1 .102.07l.564 1.407a.11.11 0 0 1-.102.151H21.52a.11.11 0 0 1-.102-.15m11.636 2.028h-14.11a.11.11 0 0 1-.11-.11c0-.696.511-1.05 1.521-1.05h11.288c1.01 0 1.521.354 1.521 1.05 0 .06-.05.11-.11.11m5.174-23.471h-4.703a.36.36 0 1 0 0 .719h4.703c.58 0 1.05.47 1.05 1.049v16.43c0 .578-.47 1.048-1.05 1.048H13.77c-.58 0-1.05-.47-1.05-1.049V22.154a.36.36 0 0 0-.721 0V32.95c0 .975.794 1.768 1.771 1.768h7.301a.11.11 0 0 1 .103.15l-.565 1.409a.11.11 0 0 1-.102.07h-.152c-1.404 0-2.242.66-2.242 1.767a.83.83 0 0 0 .83.829h14.111a.83.83 0 0 0 .83-.83c0-1.106-.837-1.767-2.241-1.767h-.152a.11.11 0 0 1-.102-.07l-.565-1.407a.11.11 0 0 1 .103-.151h7.3c.977 0 1.772-.793 1.772-1.768V16.52c0-.974-.795-1.767-1.771-1.767"/>
            <path d="M23.648 32.122a.36.36 0 0 0 0 .718h4.704a.36.36 0 0 0 0-.718h-4.704zM26 19.447a1.521 1.521 0 0 1-1.521-1.518 1.522 1.522 0 0 1 3.042 0c0 .837-.682 1.518-1.521 1.518m0-3.755a2.242 2.242 0 0 0-2.242 2.237 2.242 2.242 0 0 0 4.484 0A2.246 2.246 0 0 0 26 15.692"/>
            <path d="M30.362 16.138a.11.11 0 0 1 .114-.023l1.742.653a.11.11 0 0 1 .069.079l.718 3.217a.11.11 0 0 1-.137.13l-2.32-.631a.11.11 0 0 1-.08-.125 9.202 9.202 0 0 0 .125-1.51 5.922 5.922 0 0 0-.261-1.677.11.11 0 0 1 .03-.113zm-2.727-3.116a.11.11 0 0 1-.072.074 4.867 4.867 0 0 1-1.535.249h-.057a4.863 4.863 0 0 1-1.534-.249.11.11 0 0 1-.05-.175 9.89 9.89 0 0 1 .922-.945 1.055 1.055 0 0 1 1.39.006c.325.293.632.608.914.939a.11.11 0 0 1 .022.1zM26 23.278h-.011c-.4 0-.793-.07-1.169-.209-.82-.303-1.501-.936-1.972-1.83-.472-.897-.72-2.042-.72-3.31 0-1.706 1.031-3.384 1.647-4.233a.11.11 0 0 1 .131-.037c.67.274 1.373.41 2.093.404a5.445 5.445 0 0 0 2.095-.404.11.11 0 0 1 .131.037c.616.849 1.648 2.527 1.648 4.233 0 3.2-1.556 5.349-3.873 5.349zm4.343 2a.11.11 0 0 1-.186.078l-1.074-1.027-.006-.005a.158.158 0 0 1-.029-.019.35.35 0 0 0-.097-.06.12.12 0 0 1-.028-.013l-1.21-.405a.11.11 0 1 1-.012-.204 4.122 4.122 0 0 0 1.214-.863.11.11 0 0 1 .129-.021l1.239.62a.11.11 0 0 1 .06.098v1.82zm-7.335-2.551a.11.11 0 0 1 .079.033c.35.36.759.65 1.213.863a.11.11 0 0 1-.011.204l-1.208.403-.006.003a.122.122 0 0 1-.02.01.343.343 0 0 0-.1.06.165.165 0 0 1-.03.02l-1.082 1.033a.11.11 0 1 1-.187-.08v-1.819a.11.11 0 0 1 .061-.098l1.241-.62a.11.11 0 0 1 .05-.012zm3.517 1.404l-.426.85a.11.11 0 0 1-.099.062.11.11 0 0 1-.099-.061l-.426-.85a.11.11 0 0 1 .11-.16 4.3 4.3 0 0 0 .415.024c.152 0 .302-.012.416-.024a.11.11 0 0 1 .11.16zm8.882 4.954h1.881c.061 0 .11.05.11.11v.47c0 .319-.26.579-.58.579H15.182a.58.58 0 0 1-.58-.58v-.47c0-.06.049-.11.11-.11h1.881a.36.36 0 0 0 .36-.358c0-.579.472-1.05 1.052-1.05a.914.914 0 0 1 .364.07.362.362 0 0 0 .496-.259 1.532 1.532 0 0 1 1.49-1.219c.182.004.36.04.527.107a.11.11 0 0 1 .067.08.356.356 0 0 0 .596.183l1.086-1.04a.11.11 0 0 1 .187.08v2.578a.36.36 0 0 0 .72 0v-3.342c0-.048.03-.09.075-.105l1.106-.368a.11.11 0 0 1 .133.055l.405.807c.141.283.426.459.743.459a.826.826 0 0 0 .743-.46l.405-.806a.111.111 0 0 1 .133-.055l1.106.368a.11.11 0 0 1 .075.105v3.342a.36.36 0 0 0 .72 0v-2.579a.11.11 0 0 1 .187-.08l1.085 1.04a.356.356 0 0 0 .597-.182.11.11 0 0 1 .067-.08c.168-.067.344-.103.523-.107.722.003 1.35.515 1.494 1.219v.002l.002.006a.358.358 0 0 0 .491.252.943.943 0 0 1 .37-.07c.578 0 1.049.47 1.049 1.049 0 .198.161.359.36.359zM21.668 16.25a5.935 5.935 0 0 0-.261 1.68c0 .501.042 1.009.125 1.507a.11.11 0 0 1-.08.125l-2.32.631a.11.11 0 0 1-.137-.13l.716-3.217a.11.11 0 0 1 .07-.079l1.743-.652a.11.11 0 0 1 .144.135zm-3.214 4.355a.828.828 0 0 0 .867.281l2.278-.62a.11.11 0 0 1 .135.077c.17.596.428 1.162.766 1.682a.11.11 0 0 1-.043.158l-1.064.532a.819.819 0 0 0-.457.74v2.037a.11.11 0 0 1-.04.086.11.11 0 0 1-.094.022 2.195 2.195 0 0 0-.448-.051c-.893.002-1.7.533-2.055 1.352a.11.11 0 0 1-.113.065 1.774 1.774 0 0 0-1.89 1.316.11.11 0 0 1-.106.083h-1.478a.11.11 0 0 1-.11-.11V17.929c0-.32.26-.58.58-.58h2.352a.36.36 0 1 0 0-.718h-2.352c-.717 0-1.3.582-1.3 1.298v11.735c0 .716.583 1.299 1.3 1.299h21.636c.717 0 1.3-.583 1.3-1.299V17.93c0-.716-.583-1.298-1.3-1.298h-2.352a.36.36 0 0 0 0 .718h2.352c.32 0 .58.26.58.58v10.327c0 .06-.049.11-.11.11H35.81a.11.11 0 0 1-.106-.083 1.775 1.775 0 0 0-1.89-1.316.109.109 0 0 1-.113-.066 2.25 2.25 0 0 0-2.058-1.351c-.15.001-.3.018-.445.05a.11.11 0 0 1-.134-.107v-2.036a.819.819 0 0 0-.457-.74l-1.062-.532a.11.11 0 0 1-.043-.158c.338-.52.596-1.086.766-1.683a.11.11 0 0 1 .135-.076l2.27.618.006.002a.826.826 0 0 0 1.03-.98l-.717-3.216a.826.826 0 0 0-.52-.597l-2.52-.944a.11.11 0 0 1-.06-.055 12.025 12.025 0 0 0-2.718-3.654 1.78 1.78 0 0 0-2.35.002 12.017 12.017 0 0 0-2.715 3.652.11.11 0 0 1-.06.055l-2.522.944a.826.826 0 0 0-.519.596l-.716 3.217c-.055.247.004.501.162.698z"/>
        </g>
    </g>
</svg>
