<svg xmlns="http://www.w3.org/2000/svg" width="52" height="52" viewBox="0 0 52 52">
    <g fill="none" fill-rule="evenodd">
        <path fill="#FFF" stroke="#D3E0FF" d="M7 .5A6.5 6.5 0 0 0 .5 7v38A6.5 6.5 0 0 0 7 51.5h38a6.5 6.5 0 0 0 6.5-6.5V7A6.5 6.5 0 0 0 45 .5H7z"/>
        <path fill="#0061FF" d="M35.449 38.185h1.05V21.164h-1.05v17.021zm-19.961 0h1.05V21.164h-1.05v17.021zm0-18.085h21.01v-4.256h-21.01V20.1zm7.88-5.32h5.252v-1.063h-5.253v1.063zm2.1-2.66c0-.293.235-.531.526-.531.29 0 .525.238.525.532v.532h-1.05v-.532zm11.556 2.66H29.67v-1.595a.528.528 0 0 0-.525-.532H27.57v-.532c0-.882-.705-1.596-1.575-1.596s-1.576.714-1.576 1.596v.532h-1.576a.53.53 0 0 0-.526.532v1.595h-7.354a.529.529 0 0 0-.525.532v23.406c0 .293.235.531.525.531h2.102c.29 0 .525-.238.525-.531V21.164h16.809v17.554c0 .293.236.531.525.531h2.101c.29 0 .526-.238.526-.531V15.312a.529.529 0 0 0-.526-.532zM10.235 30.206h3.152v-1.063h-3.152zM10 24.3l.47-.953 3.151 1.596-.47.952zM10 35.05l3.152-1.595.47.951-3.152 1.596zM38.6 30.206h3.152v-1.063h-3.151zM38.366 24.944l3.151-1.596.47.952-3.152 1.595zM38.366 34.406l.47-.952 3.151 1.596-.47.951z"/>
        <path fill="#0061FF" d="M24.943 18.504h2.101V17.44h-2.1zM28.095 18.504h2.1V17.44h-2.1zM21.791 18.504h2.101V17.44h-2.1z"/>
        <g stroke="#0061FF" stroke-linecap="round" stroke-linejoin="round" stroke-width="1.4">
            <path d="M21 38l5-10 5 10M23.273 35.313h6.01"/>
        </g>
    </g>
</svg>
