<svg xmlns="http://www.w3.org/2000/svg" width="52" height="52" viewBox="0 0 52 52">
    <g fill="none" fill-rule="evenodd">
        <path fill="#FFF" stroke="#D3E0FF" d="M7 .5A6.5 6.5 0 0 0 .5 7v38A6.5 6.5 0 0 0 7 51.5h38a6.5 6.5 0 0 0 6.5-6.5V7A6.5 6.5 0 0 0 45 .5H7z"/>
        <path fill="#0061FF" stroke="#0061FF" stroke-width=".1" d="M38.098 37.015a.095.095 0 0 1-.072.034H26.002a.099.099 0 0 1-.097-.1v-2.906c0-.053.04-.097.09-.1 1.934-.138 3.284-1.042 3.284-2.2v-.937c0-.03.013-.06.036-.078a.094.094 0 0 1 .08-.02c1.938.42 8.296 2.109 8.727 6.23a.103.103 0 0 1-.024.077zM22.532 31.75V29.9c0-.034.016-.066.044-.085a.093.093 0 0 1 .093-.006 5.943 5.943 0 0 0 2.688.59h.26a5.95 5.95 0 0 0 2.69-.59.093.093 0 0 1 .092.006c.028.019.044.05.044.085v1.85c0 .634-1.264 1.343-2.955 1.343-1.692 0-2.956-.71-2.956-1.344zm2.538 5.183c0 .056-.043.1-.097.1H12.95a.095.095 0 0 1-.071-.033.103.103 0 0 1-.025-.077c.178-1.758 1.454-3.271 3.794-4.498 1.845-.967 3.882-1.5 4.933-1.733a.094.094 0 0 1 .08.02.102.102 0 0 1 .036.079v.96c0 1.14 1.35 2.044 3.285 2.198.05.004.089.048.089.1v2.884zm2.057-10.184a.567.567 0 0 1-.554.578.567.567 0 0 1-.554-.578c0-.318.248-.577.554-.577.305 0 .554.259.554.577zm-6.843-3.075c0-.02.006-.04.017-.057a.443.443 0 0 0-.1-.231c-.733-.875-1.057-1.656-.965-2.322.045-.376.223-.72.501-.968a.094.094 0 0 1 .063-.024c.484 0 2.98-.072 4.565-1.497a.093.093 0 0 1 .111-.011 11.166 11.166 0 0 0 5.661 1.594c.337 0 .687 0 1.044-.058a.094.094 0 0 1 .078.023c.27.24.446.575.495.942.093.654-.24 1.457-.964 2.32a.446.446 0 0 0-.104.292v.28c0 .037-.02.071-.051.089l-2.993 1.672a.094.094 0 0 1-.112-.016 1.347 1.347 0 0 0-1.958.056c-.525.578-.5 1.493.054 2.04a1.347 1.347 0 0 0 1.957-.056c.245-.269.38-.622.38-.993a1.49 1.49 0 0 0 0-.14.101.101 0 0 1 .05-.093l2.361-1.318a.093.093 0 0 1 .103.007c.03.024.044.063.037.1a6.092 6.092 0 0 1-1.402 2.88 4.603 4.603 0 0 1-3.485 1.36h-.253a4.6 4.6 0 0 1-3.47-1.35c-1.62-1.683-1.62-4.406-1.62-4.521zm10.638-4.49a.098.098 0 0 1-.09.092 10.317 10.317 0 0 1-6.202-1.623.41.41 0 0 0-.549.054c-.358.401-1.453 1.353-3.874 1.51a.095.095 0 0 1-.075-.03.103.103 0 0 1-.027-.078c.285-3.89 2.564-4.707 4.426-4.707.298-.002.6.023.896.076a.403.403 0 0 0 .17 0c.298-.053.601-.078.9-.076 1.136 0 2.08.31 2.804.923.93.788 1.465 2.058 1.591 3.778.02.02.032.05.03.08zm-11.716 4.443a.095.095 0 0 1-.11.04 2.324 2.324 0 0 1-1.138-.867.104.104 0 0 1-.019-.065c-.498-.819-.523-2.013-.073-3.55a.1.1 0 0 1 .039-.055l.375-.263c.129-.09.2-.244.184-.405a6.594 6.594 0 0 1 1.42-4.485c1.175-1.387 3.06-2.094 5.603-2.105h.057c2.49 0 4.362.707 5.564 2.102a6.594 6.594 0 0 1 1.424 4.484.444.444 0 0 0 .183.41l.376.262a.1.1 0 0 1 .039.054c.468 1.596.429 2.814-.117 3.62a2.337 2.337 0 0 1-1.143.868.095.095 0 0 1-.11-.04.104.104 0 0 1 .007-.122c.599-.71.896-1.658.815-2.6a2.435 2.435 0 0 0-.795-1.437.102.102 0 0 1-.034-.073c-.218-5.292-3.767-5.864-5.283-5.864a6.046 6.046 0 0 0-.968.074.094.094 0 0 1-.029 0 6.032 6.032 0 0 0-.967-.074c-1.512 0-5.05.572-5.284 5.864a.102.102 0 0 1-.035.073c-.422.363-.707.87-.804 1.432-.081.942.216 1.89.815 2.6a.104.104 0 0 1 .008.122zm15.763 8.168c-2.189-1.21-4.654-1.79-5.612-1.983a.1.1 0 0 1-.078-.099v-.493c0-.03.013-.059.036-.078.123-.104.247-.22.378-.357a7.324 7.324 0 0 0 1.752-4.025.099.099 0 0 1 .081-.088 3.32 3.32 0 0 0 2.17-1.344c.73-1.075.79-2.614.175-4.571a.435.435 0 0 0-.167-.226l-.283-.199a.102.102 0 0 1-.043-.086 7.345 7.345 0 0 0-1.643-4.825c-1.358-1.595-3.46-2.41-6.248-2.42-2.771 0-4.874.808-6.248 2.4a7.344 7.344 0 0 0-1.642 4.824.102.102 0 0 1-.042.086l-.283.198a.437.437 0 0 0-.168.227c-.612 1.96-.552 3.499.177 4.573a3.331 3.331 0 0 0 2.168 1.358.099.099 0 0 1 .081.088 7.331 7.331 0 0 0 1.76 4.033c.117.123.244.243.376.354.022.02.035.048.035.078v.493a.1.1 0 0 1-.078.1c-.958.192-3.423.771-5.612 1.982-2.716 1.502-4.065 3.421-4.01 5.704 0 .242.188.438.419.438h26.14c.231 0 .419-.196.419-.436.055-2.285-1.294-4.204-4.01-5.706z"/>
    </g>
</svg>
