<svg xmlns="http://www.w3.org/2000/svg" width="52" height="52" viewBox="0 0 52 52">
    <g fill="none" fill-rule="evenodd">
        <path fill="#FFF" stroke="#D3E0FF" d="M7 .5A6.5 6.5 0 0 0 .5 7v38A6.5 6.5 0 0 0 7 51.5h38a6.5 6.5 0 0 0 6.5-6.5V7A6.5 6.5 0 0 0 45 .5H7z"/>
        <g fill="#0061FF">
            <path d="M37.978 26.877l-.442.443a.559.559 0 0 0 .79.79l.443-.442a.559.559 0 0 0-.79-.79"/>
            <path d="M17.678 24.2c-.234.318-.372.71-.372 1.134 0 1.058.86 1.92 1.92 1.92 1.057 0 1.918-.862 1.918-1.92 0-.43-.141-.826-.38-1.146l4.632-7.019a1.915 1.915 0 0 0 .83.066l2.999 7.648-2.977 7.115a1.92 1.92 0 0 0-1.897.974l-3.153-.795a1.922 1.922 0 0 0-1.905-1.688 1.921 1.921 0 0 0-1.69 2.828l-2.989 3.325V20.17l3.064 4.031zm2.349 1.134a.803.803 0 0 1-1.604 0 .803.803 0 0 1 1.604 0zm5.932-10.801a.803.803 0 0 1 0 1.603.803.803 0 0 1 0-1.603zm.068 20.173a.803.803 0 0 1 0-1.603.803.803 0 0 1 0 1.603zm-6.734-1.496a.803.803 0 0 1 0-1.603.803.803 0 0 1 0 1.603zM32.83 16.846a.803.803 0 0 1 0 1.603.803.803 0 0 1 0-1.603zm.801 15.63a.803.803 0 0 1-1.603 0 .803.803 0 0 1 1.603 0zm5.865 5.02H15.35l3.047-3.391a1.92 1.92 0 0 0 2.605-.825l3.113.786a1.921 1.921 0 0 0 1.912 1.758c1.059 0 1.92-.86 1.92-1.92 0-.583-.262-1.106-.675-1.458l2.54-6.068 1.807 4.61a1.916 1.916 0 0 0-.709 1.488c0 1.059.861 1.92 1.92 1.92a1.921 1.921 0 0 0 1.816-2.538l2.218-2.218a.559.559 0 0 0-.79-.79l-2.092 2.092a1.909 1.909 0 0 0-1.328-.377l-2.223-5.669 2.233-5.337a1.922 1.922 0 0 0 2.021-1.42l3.518-.001a.559.559 0 0 0 0-1.118h-3.56a1.922 1.922 0 0 0-1.813-1.292c-1.059 0-1.92.86-1.92 1.92 0 .603.28 1.141.717 1.494l-1.782 4.26-2.604-6.64c.391-.352.638-.861.638-1.428 0-1.058-.861-1.919-1.92-1.919-1.058 0-1.919.86-1.919 1.92 0 .457.161.878.43 1.208l-4.607 6.98a1.91 1.91 0 0 0-1.291.006l-3.958-5.207v-5.708a.559.559 0 0 0-1.118 0v5.495h-.937a.559.559 0 0 0 0 1.118h.938v5.616h-.938a.559.559 0 0 0 0 1.118h.938v5.752h-.938a.559.559 0 0 0 0 1.118h.938v5.223c0 .309.25.559.558.559h4.815v.734a.559.559 0 0 0 1.118 0v-.734h5.617v.734a.559.559 0 0 0 1.117 0v-.734h5.753v.734a.559.559 0 0 0 1.118 0v-.734h5.903a.559.559 0 0 0 0-1.118z"/>
        </g>
    </g>
</svg>
