<svg xmlns="http://www.w3.org/2000/svg" width="52" height="52" viewBox="0 0 52 52">
    <g fill="none" fill-rule="evenodd">
        <path fill="#FFF" stroke="#D3E0FF" d="M7 .5A6.5 6.5 0 0 0 .5 7v38A6.5 6.5 0 0 0 7 51.5h38a6.5 6.5 0 0 0 6.5-6.5V7A6.5 6.5 0 0 0 45 .5H7z"/>
        <path fill="#0061FF" stroke="#0061FF" stroke-width=".2" d="M38.178 38.178a.202.202 0 0 1-.204.052 50.391 50.391 0 0 1-3.305-1.098c-1.7-.643-2.338-1.06-2.574-1.295-.5-.5-.775-1.164-.775-1.871 0-.707.275-1.371.775-1.871a2.67 2.67 0 0 1 1.877-.777c.688 0 1.357.27 1.865.777.574.575 1.469 2.772 2.393 5.879a.201.201 0 0 1-.052.204zM18.565 35.65a.796.796 0 0 1-.267.176l-.063.026a4.69 4.69 0 0 1-1.157-.727l16.177-16.178 1.006 1.006-15.696 15.697zm-3.918.668l.698.698-1.169.471.471-1.169zm.79-1.96a5.494 5.494 0 0 0 1.87 1.868l-1.194.48-1.156-1.156.48-1.192zm17.437-18.12l2.551 2.551-.625.626-2.551-2.551.625-.626zm1.814-1.814a1.872 1.872 0 0 1 1.323-.54c.485 0 .934.186 1.264.521.335.34.52.79.52 1.267 0 .482-.187.935-.528 1.276l-1.303 1.303-2.551-2.552 1.275-1.275zm4.272 23.332c-.698-2.348-1.713-5.33-2.585-6.2a3.383 3.383 0 0 0-2.676-.99l-1.964-1.876a.38.38 0 1 0-.526.551l1.593 1.522a3.37 3.37 0 0 0-1.246.792 3.397 3.397 0 0 0-.794 1.245l-4.04-4.23 1.848-1.849 1.384 1.321a.38.38 0 0 0 .538-.012.38.38 0 0 0-.012-.539l-1.37-1.308 8.696-8.697c.485-.485.751-1.13.75-1.814 0-.68-.262-1.32-.738-1.802a2.525 2.525 0 0 0-1.805-.748h-.008c-.694 0-1.37.278-1.855.763l-8.753 8.753-9.981-9.534a.38.38 0 0 0-.533.007l-1.771 1.771a.38.38 0 0 0-.007.533l5.556 5.817a.38.38 0 0 0 .55-.527l-5.298-5.547 1.246-1.246 9.7 9.264-1.682 1.682-2.766-2.897a.38.38 0 1 0-.551.526l2.779 2.91-2.918 2.917a.38.38 0 0 0 .539.539l11.45-11.45 1.006 1.005L16.54 34.587a4.69 4.69 0 0 1-.727-1.158l.025-.063c.04-.1.1-.19.177-.266l3.018-3.02a.38.38 0 0 0-.538-.538l-3.019 3.02a1.55 1.55 0 0 0-.344.52l-1.996 4.952c-.123.304.19.619.496.495l4.952-1.995c.196-.08.371-.195.52-.345l7.08-7.08 4.382 4.588.005.004a3.385 3.385 0 0 0 .987 2.674c.426.427 1.356.907 2.842 1.47 1.189.45 2.482.854 3.358 1.115a.967.967 0 0 0 1.203-1.203z"/>
    </g>
</svg>
