<svg xmlns="http://www.w3.org/2000/svg" width="52" height="52" viewBox="0 0 52 52">
    <g fill="none" fill-rule="evenodd">
        <path fill="#FFF" stroke="#D3E0FF" d="M7 .5A6.5 6.5 0 0 0 .5 7v38A6.5 6.5 0 0 0 7 51.5h38a6.5 6.5 0 0 0 6.5-6.5V7A6.5 6.5 0 0 0 45 .5H7z"/>
        <g fill="#0061FF" stroke="#0061FF" stroke-width=".1">
            <path d="M36.44 23.411c0 5.83-2.762 9.686-5.08 11.894-2.633 2.508-5.458 3.622-6.088 3.622-.63 0-3.454-1.114-6.088-3.622-2.318-2.208-5.08-6.064-5.08-11.894v-5.634l.04-.012a48.53 48.53 0 0 0 11.1-4.59l.028-.017.029.016A50.243 50.243 0 0 0 36.4 17.765l.04.011v5.635zm.698-6.56a48.902 48.902 0 0 1-11.585-4.777.563.563 0 0 0-.561 0 47.564 47.564 0 0 1-11.586 4.778.54.54 0 0 0-.406.517v6.042c0 6.203 2.943 10.308 5.412 12.66 2.656 2.53 5.742 3.929 6.86 3.929 1.118 0 4.205-1.4 6.86-3.929 2.47-2.352 5.412-6.457 5.412-12.66v-6.042a.54.54 0 0 0-.406-.517z"/>
            <path d="M19.535 17.477a.564.564 0 0 0-.422-.007c-1.087.416-2.204.8-3.318 1.14a.536.536 0 0 0-.387.511v2.284c0 .296.248.536.552.536.304 0 .552-.24.552-.536v-1.891l.039-.013a51.632 51.632 0 0 0 2.967-1.033.541.541 0 0 0 .303-.285.52.52 0 0 0 .008-.41.54.54 0 0 0-.294-.296M20.813 16.782a.537.537 0 0 0-.292.296.52.52 0 0 0 .01.41.564.564 0 0 0 .728.276l.01-.005a.537.537 0 0 0 .292-.295.52.52 0 0 0-.01-.41.565.565 0 0 0-.728-.275l-.01.003zM31.724 31.213a14.527 14.527 0 0 1-1.755 2.13 15.46 15.46 0 0 1-1.75 1.515.527.527 0 0 0-.105.752.554.554 0 0 0 .44.211.557.557 0 0 0 .334-.11 16.565 16.565 0 0 0 1.875-1.622 15.597 15.597 0 0 0 1.885-2.289.52.52 0 0 0 .078-.404.533.533 0 0 0-.238-.338.56.56 0 0 0-.764.155M26.766 35.81a.53.53 0 0 0-.202.732.557.557 0 0 0 .754.196l.04-.023a.529.529 0 0 0 .197-.734.561.561 0 0 0-.755-.192l-.034.02zM31.395 22.918l-7.497 7.288a.824.824 0 0 1-.579.233.825.825 0 0 1-.578-.233l-3.591-3.49a.78.78 0 0 1 0-1.125.825.825 0 0 1 .578-.233c.219 0 .424.083.578.233l2.623 2.55a.557.557 0 0 0 .39.157.556.556 0 0 0 .39-.157l6.53-6.348a.824.824 0 0 1 .577-.232c.219 0 .424.082.579.232a.78.78 0 0 1 0 1.125m-.579-2.43c-.513 0-.995.194-1.358.547l-6.139 5.968-2.232-2.171a1.936 1.936 0 0 0-1.359-.547c-.513 0-.995.194-1.358.547a1.834 1.834 0 0 0 0 2.642l3.59 3.491c.364.353.846.547 1.36.547.513 0 .995-.194 1.358-.547l7.497-7.289a1.834 1.834 0 0 0 0-2.641 1.937 1.937 0 0 0-1.359-.547"/>
        </g>
    </g>
</svg>
