<svg xmlns="http://www.w3.org/2000/svg" width="27" height="27" viewBox="0 0 27 27">
    <g fill="none" fill-rule="evenodd">
        <path fill="#F7931A" d="M26.598 16.51c-1.775 7.12-8.988 11.454-16.11 9.678C3.37 24.413-.963 17.2.813 10.08 2.587 2.958 9.8-1.376 16.92.4c7.121 1.775 11.454 8.988 9.68 16.11z"/>
        <path fill="#FFF" fill-rule="nonzero" d="M19.566 11.4c.264-1.768-1.082-2.72-2.924-3.353l.598-2.396-1.459-.364L15.2 7.62a61.008 61.008 0 0 0-1.169-.275l.586-2.348-1.458-.364-.598 2.395a48.79 48.79 0 0 1-.93-.218v-.008L9.622 6.3l-.388 1.558s1.082.248 1.059.263c.59.147.697.538.68.848l-.681 2.73c.04.01.093.025.152.048l-.155-.038-.953 3.824c-.073.179-.256.448-.669.346.015.021-1.06-.265-1.06-.265l-.724 1.67 1.898.473c.353.088.7.181 1.04.268l-.604 2.424 1.457.363.598-2.397c.398.108.784.207 1.162.301l-.596 2.386 1.459.364.603-2.419c2.487.47 4.357.281 5.145-1.968.634-1.811-.032-2.856-1.34-3.537.952-.22 1.67-.847 1.862-2.142zm-3.333 4.673c-.45 1.811-3.5.832-4.488.587l.8-3.211c.99.247 4.16.735 3.688 2.624zm.452-4.699c-.412 1.648-2.95.81-3.773.605l.726-2.911c.823.205 3.475.588 3.047 2.306z"/>
    </g>
</svg>
