<svg xmlns="http://www.w3.org/2000/svg" width="27" height="27" viewBox="0 0 27 27">
    <g fill="none" fill-rule="evenodd">
        <path fill="#BEBEBE" d="M26.927 13.5c0 7.417-6.012 13.43-13.429 13.43C6.081 26.93.069 20.916.069 13.5.07 6.084 6.081.071 13.498.071c7.416 0 13.429 6.013 13.429 13.43"/>
        <path fill="#BEBEBE" d="M24.076 13.5c0 5.842-4.736 10.578-10.578 10.578S2.92 19.342 2.92 13.5 7.656 2.923 13.498 2.923 24.076 7.658 24.076 13.5"/>
        <path fill="#FFF" d="M12.713 17.088l.872-3.285 2.065-.754.514-1.93-.017-.048-2.033.742L15.578 6.3h-4.153l-1.916 7.197-1.599.584-.528 1.99 1.598-.584-1.13 4.241h11.055l.71-2.64h-6.902"/>
    </g>
</svg>
