<svg xmlns="http://www.w3.org/2000/svg" width="52" height="52" viewBox="0 0 52 52">
    <g fill="none" fill-rule="evenodd">
        <path fill="#FFF" stroke="#D3E0FF" d="M7 .5A6.5 6.5 0 0 0 .5 7v38A6.5 6.5 0 0 0 7 51.5h38a6.5 6.5 0 0 0 6.5-6.5V7A6.5 6.5 0 0 0 45 .5H7z"/>
        <g fill="#0061FF" stroke="#0061FF" stroke-width=".1">
            <path fill-rule="nonzero" d="M15.562 41h19.373c.844 0 1.53-.672 1.53-1.5V16h2.038a1.01 1.01 0 0 0 1.02-1v-1.5c-.002-1.38-1.142-2.498-2.549-2.5H15.562c-.844 0-1.53.672-1.53 1.5v21c0 .276.23.5.51.5.282 0 .51-.224.51-.5v-21c0-.276.229-.5.51-.5.845 0 1.53.672 1.53 1.5V15c0 .552.456 1 1.02 1h17.333v23.5c0 .276-.229.5-.51.5H15.562a.505.505 0 0 1-.51-.5v-2c0-.276-.228-.5-.51-.5a.505.505 0 0 0-.51.5v2c0 .828.686 1.5 1.53 1.5zm2.026-29h19.386c.845 0 1.53.672 1.53 1.5V15H18.11v-1.5a2.445 2.445 0 0 0-.523-1.5z"/>
            <path d="M14.349 35.96c.029.014.06.025.092.03a.542.542 0 0 0 .464-.135.51.51 0 0 0 0-.71.53.53 0 0 0-.169-.105.515.515 0 0 0-.667.268.493.493 0 0 0 .112.547l.076.06c.029.019.06.034.092.045zM19.64 18.5h-1.529a1.01 1.01 0 0 0-1.02 1v3c0 .552.457 1 1.02 1h3.06a1.01 1.01 0 0 0 1.019-1V22c0-.276-.229-.5-.51-.5a.505.505 0 0 0-.51.5v.5h-3.059v-3h1.53c.281 0 .51-.224.51-.5s-.229-.5-.51-.5z"/>
            <path fill-rule="nonzero" d="M17.092 29.5c0 .552.456 1 1.02 1h3.058a1.01 1.01 0 0 0 1.02-1v-3c0-.552-.457-1-1.02-1h-3.059a1.01 1.01 0 0 0-1.02 1v3zm1.02-3h3.058v3h-3.059v-3zM17.092 36.5c0 .552.456 1 1.02 1h3.058a1.01 1.01 0 0 0 1.02-1v-3c0-.552-.457-1-1.02-1h-3.059a1.01 1.01 0 0 0-1.02 1v3zm1.02-3h3.058v3h-3.059v-3z"/>
            <path d="M24.229 20.5h2.549c.282 0 .51-.224.51-.5s-.228-.5-.51-.5h-2.55a.505.505 0 0 0-.509.5c0 .276.228.5.51.5zM33.915 19.5h-5.098a.505.505 0 0 0-.51.5c0 .276.229.5.51.5h5.098c.282 0 .51-.224.51-.5s-.228-.5-.51-.5zM24.229 22.5h5.098c.281 0 .51-.224.51-.5s-.229-.5-.51-.5h-5.098a.505.505 0 0 0-.51.5c0 .276.228.5.51.5zM33.915 21.5h-2.549a.505.505 0 0 0-.51.5c0 .276.229.5.51.5h2.55c.28 0 .509-.224.509-.5s-.228-.5-.51-.5zM24.229 27.5h2.549c.282 0 .51-.224.51-.5s-.228-.5-.51-.5h-2.55a.505.505 0 0 0-.509.5c0 .276.228.5.51.5zM33.915 26.5h-5.098a.505.505 0 0 0-.51.5c0 .276.229.5.51.5h5.098c.282 0 .51-.224.51-.5s-.228-.5-.51-.5zM24.229 29.5h5.098c.281 0 .51-.224.51-.5s-.229-.5-.51-.5h-5.098a.505.505 0 0 0-.51.5c0 .276.228.5.51.5zM33.915 28.5h-2.549a.505.505 0 0 0-.51.5c0 .276.229.5.51.5h2.55c.28 0 .509-.224.509-.5s-.228-.5-.51-.5zM24.229 34.5h2.549c.282 0 .51-.224.51-.5s-.228-.5-.51-.5h-2.55a.505.505 0 0 0-.509.5c0 .276.228.5.51.5zM33.915 33.5h-5.098a.505.505 0 0 0-.51.5c0 .276.229.5.51.5h5.098c.282 0 .51-.224.51-.5s-.228-.5-.51-.5zM24.229 36.5h5.098c.281 0 .51-.224.51-.5s-.229-.5-.51-.5h-5.098a.505.505 0 0 0-.51.5c0 .276.228.5.51.5zM33.915 35.5h-2.549a.505.505 0 0 0-.51.5c0 .276.229.5.51.5h2.55c.28 0 .509-.224.509-.5s-.228-.5-.51-.5zM18.77 20.147c-.199.195-.199.511 0 .707l1.02 1a.515.515 0 0 0 .36.146h.043a.512.512 0 0 0 .372-.208l2.55-3.5a.492.492 0 0 0 .048-.498.514.514 0 0 0-.879-.083l-2.198 3.02-.595-.583a.517.517 0 0 0-.72-.001z"/>
        </g>
    </g>
</svg>
