<svg xmlns="http://www.w3.org/2000/svg" width="52" height="52" viewBox="0 0 52 52">
    <g fill="none" fill-rule="evenodd">
        <path fill="#FFF" stroke="#D3E0FF" d="M7 .5A6.5 6.5 0 0 0 .5 7v38A6.5 6.5 0 0 0 7 51.5h38a6.5 6.5 0 0 0 6.5-6.5V7A6.5 6.5 0 0 0 45 .5H7z"/>
        <g fill="#0061FF" stroke="#0061FF" stroke-width=".1">
            <path d="M36.03 27.692c-.306.164-.658.197-.991.096a1.293 1.293 0 0 1-.77-.634l-6.82-12.85a1.303 1.303 0 1 1 2.3-1.225l6.821 12.85a1.307 1.307 0 0 1-.54 1.763zm-3.813-.94a20.27 20.27 0 0 0-9.177 1.739l-.335.149-2.953-5.564.31-.195a20.318 20.318 0 0 0 6.572-6.648l.36-.589 5.911 11.137-.688-.03zm-7.735 3.554a1.307 1.307 0 0 1-.54 1.764l-1.15.613-1.222-2.303.433-.23c.338-.18.846-.452 1.576-.77l.334-.146.57 1.072zm-.652 6.529a1.307 1.307 0 0 1-.54 1.764c-.306.163-.659.197-.992.095a1.293 1.293 0 0 1-.769-.634l-3.169-5.97 2.3-1.225 3.17 5.97zm-8.013-4.558c-.307.164-.659.198-.992.096a1.293 1.293 0 0 1-.77-.634l-1.705-3.213a1.307 1.307 0 0 1 .54-1.764l5.965-3.177 2.928 5.515-5.966 3.177zm21.663-6.833l-6.821-12.85a2.314 2.314 0 0 0-1.378-1.136 2.315 2.315 0 0 0-1.776.171 2.337 2.337 0 0 0-1.137 2.745l.048.158-.113.21a19.45 19.45 0 0 1-8.006 7.973l-5.89 3.137c-.55.293-.955.783-1.137 1.38a2.322 2.322 0 0 0 .171 1.778l1.705 3.213c.293.551.782.955 1.377 1.137.595.182 1.227.12 1.777-.173l1.15-.612 3.17 5.97c.292.55.781.955 1.376 1.137.596.182 1.227.12 1.777-.173a2.32 2.32 0 0 0 1.135-1.38 2.321 2.321 0 0 0-.169-1.778l-1.464-2.758 1.15-.613c.552-.293.955-.783 1.137-1.379a2.322 2.322 0 0 0-.17-1.779l-.51-.96.446-.146a19.315 19.315 0 0 1 7.938-.857l.238.024.103.128a2.333 2.333 0 0 0 3.873-2.567z"/>
            <path d="M17.28 27.274l-1.606.855a.608.608 0 0 0 .107 1.116.601.601 0 0 0 .462-.045l1.605-.855a.608.608 0 0 0-.107-1.115.601.601 0 0 0-.462.044M35.35 14.544l.533-1.74a.607.607 0 0 0-1.159-.354l-.532 1.74a.607.607 0 0 0 1.159.354M38.566 20.602a.607.607 0 0 0-.355 1.16l1.738.532a.607.607 0 0 0 .355-1.16l-1.738-.532zM40.162 15.381a.601.601 0 0 0-.461.045l-2.27 1.209a.608.608 0 0 0 .107 1.115.601.601 0 0 0 .461-.044l2.27-1.21a.608.608 0 0 0-.107-1.115"/>
        </g>
    </g>
</svg>
