<svg xmlns="http://www.w3.org/2000/svg" width="52" height="52" viewBox="0 0 52 52">
    <g fill="none" fill-rule="evenodd">
        <path fill="#FFF" stroke="#D3E0FF" d="M7 .5A6.5 6.5 0 0 0 .5 7v38A6.5 6.5 0 0 0 7 51.5h38a6.5 6.5 0 0 0 6.5-6.5V7A6.5 6.5 0 0 0 45 .5H7z"/>
        <path stroke="#0061FF" stroke-linecap="round" stroke-linejoin="round" stroke-width=".8" d="M13 38.765h26.571M20.425 14.712a3.713 3.713 0 1 0-7.425 0 3.713 3.713 0 0 0 7.425 0zM29.875 24.837a3.713 3.713 0 1 0-7.425 0 3.713 3.713 0 0 0 7.425 0zM39.325 19.438a3.712 3.712 0 1 0-7.425 0 3.712 3.712 0 0 0 7.425 0z"/>
        <g fill="#0061FF">
            <path d="M24.6 25.526l1.58.714 1.612-.714-1.598 1.735-1.595-1.735zm-.005-.977l1.582-.521 1.535.534-1.537-1.89-1.58 1.877z"/>
            <path d="M26.185 24.482l-1.649.542 1.649.715 1.602-.7z"/>
        </g>
        <path fill="#0061FF" d="M35.577 20.298l.24-.884.57-.203.142-.52-.005-.012-.56.2.403-1.485h-1.145l-.529 1.938-.441.157-.146.535.44-.157-.31 1.142h3.05l.195-.71zM17.626 14.163c-.109.451-.782.222-1.001.166l.193-.798c.218.056.922.161.808.632zm-.12 1.287c-.119.496-.928.228-1.19.16l.212-.879c.262.068 1.103.202.979.719zm.885-1.28c.07-.484-.287-.745-.776-.918l.159-.656-.387-.1-.155.639c-.101-.026-.206-.051-.31-.075l.156-.643-.387-.1-.159.656-.247-.06v-.002l-.533-.138-.103.427s.287.068.28.072c.158.04.186.147.181.232l-.18.748.04.013-.04-.01-.254 1.047c-.02.049-.068.123-.177.095.003.005-.282-.073-.282-.073l-.192.457.504.13c.094.024.185.05.276.073l-.16.664.386.1.159-.657c.105.03.208.057.308.083l-.158.653.387.1.16-.663c.66.13 1.157.077 1.365-.539.169-.495-.008-.781-.355-.968.253-.06.443-.232.494-.587z"/>
        <path stroke="#0061FF" stroke-linecap="round" stroke-linejoin="round" stroke-width=".8" d="M14.228 38.765V21.343c0-.22.184-.399.41-.399h5.045c.225 0 .409.18.409.4v17.42M23.582 38.765v-7.1c0-.22.184-.4.41-.4h5.045c.225 0 .409.18.409.4v7.1M32.572 38.765V26.51c0-.22.183-.4.409-.4h5.045c.225 0 .41.18.41.4v12.255"/>
    </g>
</svg>
