<svg xmlns="http://www.w3.org/2000/svg" width="52" height="52" viewBox="0 0 52 52">
    <g fill="none" fill-rule="evenodd">
        <path fill="#FFF" stroke="#D3E0FF" d="M7 .5A6.5 6.5 0 0 0 .5 7v38A6.5 6.5 0 0 0 7 51.5h38a6.5 6.5 0 0 0 6.5-6.5V7A6.5 6.5 0 0 0 45 .5H7z"/>
        <path fill="#FFF" d="M36.733 34.867V38.6a.936.936 0 0 1-.933.933h-4.2a.936.936 0 0 1-.933-.933v-3.733h6.066z"/>
        <path fill="#FFF" d="M39.067 28.8v5.133a2.333 2.333 0 0 1-2.334 2.334h-4.666a2.334 2.334 0 0 1-2.334-2.334v-10.5a1.167 1.167 0 0 1 2.333 0v4.434a.936.936 0 0 1 .934-.934h.467a.936.936 0 0 1 .933.934v.466a.936.936 0 0 1 .933-.933h.467a.936.936 0 0 1 .933.933v.467a.936.936 0 0 1 .934-.933h.466a.936.936 0 0 1 .934.933z"/>
        <path fill="#0061FF" d="M38.003 27.867a.92.92 0 0 1 .13.466v.467a.933.933 0 0 1 .467-.803.92.92 0 0 0-.467-.13h-.13zM16.2 34.867h.933V16.2H16.2z"/>
        <path fill="#0061FF" d="M16.49 31.563a.3.3 0 0 0 .083.028.49.49 0 0 0 .425-.126.48.48 0 0 0 0-.663.48.48 0 0 0-.154-.098.467.467 0 0 0-.509.76l.07.057a.356.356 0 0 0 .084.042z"/>
        <path fill="#0061FF" d="M35.8 14.417A2.42 2.42 0 0 0 33.383 12H18.617a2.42 2.42 0 0 0-2.417 2.417v14.85a.467.467 0 0 0 .933 0v-12.6h17.734v10.352c-.076.028-.15.062-.22.101a1.396 1.396 0 0 0-1.18-.653H33c-.16.001-.317.03-.467.085v-3.119a1.644 1.644 0 0 0-.202-.785c.132-.263.2-.553.202-.848a1.841 1.841 0 0 0-1.81-1.867h-8.979c-.486.001-.95.201-1.283.554-.34.352-.53.823-.528 1.313a1.841 1.841 0 0 0 1.811 1.867h7.523v10.266c0 .157.015.313.042.467H17.133V33a.467.467 0 0 0-.933 0v4.583A2.42 2.42 0 0 0 18.617 40h19.516a.467.467 0 0 0 .467-.467v-3.518c.593-.53.933-1.287.933-2.082V28.8a1.4 1.4 0 0 0-1.4-1.4h-.466a1.383 1.383 0 0 0-.687.187 1.398 1.398 0 0 0-1.18-.654V14.417zm-18.667 1.316v-1.316a1.486 1.486 0 0 1 1.484-1.484h14.766c.819.001 1.483.665 1.484 1.484v1.316H17.133zm3.734 6.067a.956.956 0 0 1 .266-.665.848.848 0 0 1 .611-.268h8.979c.5.016.891.433.877.933a.964.964 0 0 1-.01.14 1.499 1.499 0 0 0-.518-.13.65.65 0 0 0-.309.004c-.575.05-1.081.4-1.332.92h-7.687a.908.908 0 0 1-.877-.934zm-3.734 15.783v-2.25h12.513c.148.255.335.485.554.682v3.052H18.617a1.486 1.486 0 0 1-1.484-1.484zm20.534 1.484h-6.534V36.57c.3.107.616.162.934.163h4.666c.319 0 .634-.056.934-.163v2.497zm-1.4-10.734v.934a.467.467 0 0 0 .933 0V28.8c0-.258.209-.467.467-.467h.466c.258 0 .467.21.467.467v5.133a1.867 1.867 0 0 1-1.867 1.867h-4.666a1.867 1.867 0 0 1-1.867-1.867v-10.5a.7.7 0 0 1 1.4 0v5.834a.467.467 0 0 0 .933 0v-1.4c0-.258.21-.467.467-.467h.467c.257 0 .466.209.466.467v1.4a.467.467 0 0 0 .934 0v-.934c0-.257.209-.466.466-.466h.467c.258 0 .467.209.467.466z"/>
        <path fill="#0061FF" d="M25.767 35.8h-.934a.933.933 0 0 0-.933.933v.934c0 .515.418.933.933.933h.934a.933.933 0 0 0 .933-.933v-.934a.933.933 0 0 0-.933-.933zm-.934 1.867h.934v-.934h-.934v.934zM19.933 26h1.4a.467.467 0 0 0 0-.933h-1.4a.467.467 0 0 0 0 .933zM23.2 26h4.667a.467.467 0 1 0 0-.933H23.2a.467.467 0 1 0 0 .933zM19.933 27.867h1.4a.467.467 0 0 0 0-.934h-1.4a.467.467 0 0 0 0 .934zM23.2 27.867h4.667a.467.467 0 1 0 0-.934H23.2a.467.467 0 1 0 0 .934zM19.933 29.733h1.4a.467.467 0 0 0 0-.933h-1.4a.467.467 0 0 0 0 .933zM23.2 29.733h4.667a.467.467 0 1 0 0-.933H23.2a.467.467 0 1 0 0 .933zM19.933 31.6h1.4a.467.467 0 0 0 0-.933h-1.4a.467.467 0 0 0 0 .933zM23.2 31.6h4.667a.467.467 0 1 0 0-.933H23.2a.467.467 0 1 0 0 .933zM13.867 14.333a.467.467 0 0 0 .466-.466V13.4a.467.467 0 1 0-.933 0v.467c0 .257.209.466.467.466zM13.4 16.2a.467.467 0 0 0 .933 0v-.467a.467.467 0 0 0-.933 0v.467zM12.467 15.267h.466a.467.467 0 1 0 0-.934h-.466a.467.467 0 1 0 0 .934zM15.267 14.333H14.8a.467.467 0 0 0 0 .934h.467a.467.467 0 0 0 0-.934zM38.133 18.533a.467.467 0 0 0 .467-.466V17.6a.467.467 0 0 0-.933 0v.467c0 .257.208.466.466.466zM37.667 20.4a.467.467 0 0 0 .933 0v-.467a.467.467 0 0 0-.933 0v.467zM37.2 18.533h-.467a.467.467 0 0 0 0 .934h.467a.467.467 0 0 0 0-.934zM39.533 18.533h-.466a.467.467 0 0 0 0 .934h.466a.467.467 0 0 0 0-.934zM14.333 32.533a.467.467 0 0 0-.933 0V33a.467.467 0 0 0 .933 0v-.467zM13.867 34.4a.467.467 0 0 0-.467.467v.466a.467.467 0 0 0 .933 0v-.466a.467.467 0 0 0-.466-.467zM12.467 34.4h.466a.467.467 0 1 0 0-.933h-.466a.467.467 0 1 0 0 .933zM14.8 34.4h.467a.467.467 0 0 0 0-.933H14.8a.467.467 0 0 0 0 .933zM18.533 19a.467.467 0 0 0 .467-.467v-.466a.467.467 0 1 0-.933 0v.466c0 .258.209.467.466.467zM18.067 23.667a.467.467 0 1 0 .933 0v-3.734a.467.467 0 0 0-.933 0v3.734z"/>
    </g>
</svg>
