<svg xmlns="http://www.w3.org/2000/svg" width="52" height="52" viewBox="0 0 52 52">
    <g fill="none" fill-rule="evenodd">
        <path fill="#FFF" stroke="#D3E0FF" d="M7 .5A6.5 6.5 0 0 0 .5 7v38A6.5 6.5 0 0 0 7 51.5h38a6.5 6.5 0 0 0 6.5-6.5V7A6.5 6.5 0 0 0 45 .5H7z"/>
        <g stroke="#0061FF" stroke-linecap="round" stroke-linejoin="round">
            <path stroke-width="1.4" d="M27.607 14.013c-3.047 1.84-5.083 5.177-5.083 8.987 0 5.799 4.716 10.5 10.534 10.5 1.394 0 2.724-.27 3.942-.76A12.036 12.036 0 0 1 27.038 38C20.39 38 15 32.627 15 26s5.39-12 12.038-12c.191 0 .38.004.569.013z"/>
            <path d="M31.437 23.815l-2.552.875.92-2.656-1.547-2.275 2.672.067 1.596-2.28.732 2.697 2.533.866-2.22 1.6-.03 2.815z"/>
        </g>
    </g>
</svg>
