<svg xmlns="http://www.w3.org/2000/svg" width="52" height="52" viewBox="0 0 52 52">
    <g fill="none" fill-rule="evenodd">
        <path fill="#FFF" stroke="#D3E0FF" d="M7 .5A6.5 6.5 0 0 0 .5 7v38A6.5 6.5 0 0 0 7 51.5h38a6.5 6.5 0 0 0 6.5-6.5V7A6.5 6.5 0 0 0 45 .5H7z"/>
        <path fill="#0061FF" stroke="#0061FF" stroke-width=".1" d="M39.195 17.759c-.256.729-2.842 1.74-7.03 1.74-2.411 0-4.063-.33-5.023-.607-.55-.158-1.845-.585-2.012-1.135l-.017-.067.003-.105.011-.043c.215-.744 2.779-1.771 7.038-1.771 4.188 0 6.774 1.01 7.03 1.74l.044.123-.044.125zm.018 2.908l-.01.036c-.201.745-2.76 1.777-7.038 1.777-4.272 0-6.832-1.024-7.038-1.763l-.014-.062V18.84l.538.27c1.408.71 3.843 1.133 6.514 1.133 2.672 0 5.107-.424 6.514-1.133l.538-.272-.004 1.828zm0 2.982l-.01.036c-.201.745-2.76 1.777-7.038 1.777-4.272 0-6.832-1.024-7.038-1.763l-.014-.062v-1.814l.538.27c1.408.71 3.843 1.133 6.514 1.133 2.672 0 5.107-.424 6.514-1.133l.538-.271-.004 1.827zm0 2.982l-.01.036c-.201.745-2.76 1.777-7.038 1.777-4.272 0-6.832-1.024-7.038-1.763l-.014-.062v-1.815l.539.272c1.4.709 3.835 1.132 6.513 1.132 2.672 0 5.107-.424 6.514-1.133l.538-.271-.004 1.827zm0 2.982l-.01.036c-.201.745-2.76 1.778-7.038 1.778-4.272 0-6.832-1.025-7.038-1.764l-.014-.062v-1.815l.539.272c1.4.709 3.835 1.132 6.513 1.132 2.672 0 5.107-.424 6.514-1.133l.538-.271-.004 1.827zm0 2.982l-.01.036c-.201.745-2.76 1.778-7.038 1.778-4.272 0-6.832-1.025-7.038-1.764l-.014-.062v-1.815l.539.272c1.4.709 3.835 1.132 6.513 1.132 2.672 0 5.107-.423 6.514-1.133l.538-.271-.004 1.827zm0 2.982l-.01.037c-.201.745-2.76 1.777-7.038 1.777-4.272 0-6.832-1.025-7.038-1.764l-.014-.062V33.75l.539.272c1.4.709 3.835 1.132 6.513 1.132 2.672 0 5.107-.423 6.514-1.133l.538-.271-.004 1.827zm.746-.05V17.634c0-.96-1.277-1.565-2.348-1.903-1.42-.449-3.405-.706-5.446-.706s-4.027.257-5.446.706c-1.071.338-2.348.943-2.348 1.903v17.893c0 .96 1.277 1.565 2.348 1.904 1.42.448 3.404.705 5.446.705s4.027-.257 5.446-.705c1.071-.339 2.348-.943 2.348-1.904z"/>
        <path fill="#FFF" d="M27.08 36.967V27.41c.01-.864-.752-1.61-2.206-2.16l-.006-.002c-1.28-.484-2.981-.75-4.793-.75-1.812 0-3.515.266-4.793.75-1.448.541-2.212 1.289-2.212 2.162v9.557c0 .867.765 1.615 2.212 2.163 1.278.483 2.98.75 4.793.75 1.812 0 3.514-.267 4.793-.75 1.447-.542 2.212-1.29 2.212-2.163"/>
        <path fill="#0061FF" stroke="#0061FF" stroke-width=".1" d="M26.422 30.615c-.037.28-.31.827-1.718 1.353-1.23.458-2.87.71-4.615.71-1.756 0-3.395-.252-4.616-.71-1.084-.41-1.73-.942-1.73-1.424V28.72l.683.37c.194.104.445.215.79.348 1.298.49 3.028.76 4.873.76 1.844 0 3.575-.27 4.874-.761.31-.12.57-.234.795-.35l.684-.357-.02 1.885zm0 3.27c-.037.28-.31.828-1.718 1.354-1.231.458-2.87.71-4.615.71-1.755 0-3.395-.252-4.616-.71-1.084-.41-1.73-.942-1.73-1.424V31.99l.683.37c.195.105.439.213.79.348 1.298.49 3.028.76 4.873.76 1.844 0 3.575-.27 4.874-.761.312-.12.572-.235.795-.35l.684-.357-.02 1.885zm.011 3.24c-.04.48-.67.985-1.727 1.385-1.233.458-2.872.71-4.617.71-1.756 0-3.395-.252-4.616-.71-1.084-.41-1.73-.942-1.73-1.424v-1.824l.683.37c.195.105.439.212.79.348 1.298.49 3.028.76 4.873.76 1.844 0 3.575-.27 4.874-.761.311-.12.571-.234.795-.35l.677-.353-.002 1.848zm-10.967-11.23c1.23-.458 2.869-.71 4.613-.71 1.756 0 3.395.252 4.616.71 1.061.396 1.688.9 1.72 1.384l.002.089-.005.031c-.037.28-.31.828-1.717 1.354-1.231.458-2.87.71-4.616.71-1.755 0-3.394-.252-4.615-.71-1.084-.41-1.731-.942-1.731-1.424 0-.188.125-.845 1.733-1.435zm11.693 11.21v-9.786c.01-.843-.75-1.577-2.198-2.124-1.306-.494-3.037-.765-4.882-.765-1.844 0-3.575.271-4.874.763-1.443.539-2.205 1.274-2.205 2.126v9.785c0 .846.762 1.581 2.205 2.127 1.299.492 3.03.762 4.874.762 1.845 0 3.576-.27 4.875-.762 1.443-.54 2.205-1.275 2.205-2.127z"/>
        <path fill="#4C5368" stroke="#FFF" stroke-width="6" d="M26.499 21.89c0-.15-.058-.29-.164-.396l-3.77-3.77 3.77-3.769a.556.556 0 0 0 0-.791.56.56 0 0 0-.791 0l-3.77 3.77-3.77-3.77a.556.556 0 0 0-.79 0 .56.56 0 0 0 0 .791l3.77 3.77-3.77 3.77a.56.56 0 0 0 .79.79l3.77-3.77 3.77 3.77a.56.56 0 0 0 .955-.395"/>
        <path fill="#0061FF" stroke="#0061FF" stroke-width=".1" d="M26.499 21.89c0-.15-.058-.29-.164-.396l-3.77-3.77 3.77-3.769a.556.556 0 0 0 0-.791.56.56 0 0 0-.791 0l-3.77 3.77-3.77-3.77a.556.556 0 0 0-.79 0 .56.56 0 0 0 0 .791l3.77 3.77-3.77 3.77a.56.56 0 0 0 .79.79l3.77-3.77 3.77 3.77a.56.56 0 0 0 .955-.395"/>
    </g>
</svg>
