<svg xmlns="http://www.w3.org/2000/svg" width="52" height="52" viewBox="0 0 52 52">
    <g fill="none" fill-rule="evenodd">
        <path fill="#FFF" stroke="#D3E0FF" d="M7 .5A6.5 6.5 0 0 0 .5 7v38A6.5 6.5 0 0 0 7 51.5h38a6.5 6.5 0 0 0 6.5-6.5V7A6.5 6.5 0 0 0 45 .5H7z"/>
        <g fill="#0061FF" stroke="#0061FF" stroke-width=".1">
            <path d="M32.717 33.11l.103-.076c.523-.381.982-.84 1.365-1.361l.076-.104 3.493 3.493c.203.204.314.475.311.765a1.09 1.09 0 0 1-.322.768 1.09 1.09 0 0 1-1.532.01l-3.494-3.495zm1.826 4.689c0 .728-.592 1.32-1.32 1.32-.728 0-1.32-.592-1.32-1.32v-.444l-.002-.042-.001-.009v-.013a.438.438 0 0 0 .003-.042v-1.21a.44.44 0 0 0-.44-.44H18.37v-5.22l1.118-1.119 2.726 2.727a.437.437 0 0 0 .623 0l.868-.868.073.119a6.237 6.237 0 0 0 5.35 3.003c.959 0 1.88-.213 2.739-.631l.07-.035 2.606 2.607v1.617zm-17.823 1.32c-.728 0-1.32-.592-1.32-1.32v-1.32h15.623v.77c0 .014 0 .028.002.042v.022a.437.437 0 0 0-.002.042v.444c0 .407.113.806.327 1.152l.103.168H16.72zm8.597-14.96a5.354 5.354 0 0 1 3.81-1.58 5.397 5.397 0 0 1 5.391 5.39 5.397 5.397 0 0 1-5.39 5.391 5.395 5.395 0 0 1-4.736-2.817l-.04-.072 3.425-3.425v1.514a.44.44 0 0 0 .88 0v-2.64a.44.44 0 0 0-.44-.44h-2.64a.44.44 0 0 0 0 .88h1.642l-3.235 3.235-.05-.182a5.383 5.383 0 0 1-.197-1.443c0-1.438.561-2.791 1.58-3.81zm10.107 12.907l.186.182c.364.353.846.548 1.358.548h.01a1.964 1.964 0 0 0 1.388-.579 1.966 1.966 0 0 0 .01-2.777l-3.649-3.649.035-.07a6.197 6.197 0 0 0 .637-2.751 6.278 6.278 0 0 0-6.271-6.271 6.278 6.278 0 0 0-6.271 6.27c0 .773.14 1.528.415 2.245l.026.067-.772.772-2.726-2.726a.437.437 0 0 0-.623 0l-.807.807v-5.289a.44.44 0 0 0-.88 0v6.169l-5.006 5.006a.44.44 0 0 0 .623.622l4.383-4.383v4.34h-2.53a.44.44 0 0 0-.44.44v1.76c0 1.213.987 2.2 2.2 2.2h16.503c1.214 0 2.2-.987 2.2-2.2v-.733z"/>
            <path d="M32.61 27.53a.44.44 0 0 0-.44.44 3.046 3.046 0 0 1-3.042 3.042.44.44 0 0 0 0 .88 3.927 3.927 0 0 0 3.922-3.922.44.44 0 0 0-.44-.44M21.84 21.516h1.647v-3.355H21.84v3.355zm-4.404 0h1.54v-5.61h-1.54v5.61zm-4.4 0h1.54v-2.09h-1.54v2.09zm11.943 0h-.612v-3.795a.44.44 0 0 0-.44-.44H21.4a.44.44 0 0 0-.44.44v3.795h-1.105v-6.05a.44.44 0 0 0-.44-.44h-2.42a.44.44 0 0 0-.44.44v6.05h-1.1v-2.53a.44.44 0 0 0-.44-.44h-2.42a.44.44 0 0 0-.44.44v2.53h-.716a.44.44 0 0 0 0 .88H24.98a.44.44 0 0 0 0-.88zM29.453 15.025h-4.26a.44.44 0 0 0 0 .88h4.26a.44.44 0 0 0 0-.88M32.485 15.154a.443.443 0 0 0-.622 0 .444.444 0 0 0 0 .623.444.444 0 0 0 .622 0 .443.443 0 0 0 0-.623M27.323 17.446h-.902a.44.44 0 0 0 0 .88h.902a.44.44 0 0 0 0-.88M32.174 17.446h-2.72a.44.44 0 0 0 0 .88h2.72a.44.44 0 0 0 0-.88M11.752 36.375a.443.443 0 0 0-.623 0 .44.44 0 1 0 .623 0"/>
            <path d="M38.064 18.766h-2.64v-4.51c0-.729.592-1.32 1.32-1.32.728 0 1.32.591 1.32 1.32v4.51zm.88-4.51c0-1.214-.987-2.201-2.2-2.201H19.69a.44.44 0 0 0 0 .88h15.283l-.104.168a2.192 2.192 0 0 0-.327 1.152v7.206a.44.44 0 0 0 .88 0v-1.815h3.081a.44.44 0 0 0 .44-.44v-4.95z"/>
        </g>
    </g>
</svg>
