<svg xmlns="http://www.w3.org/2000/svg" width="52" height="52" viewBox="0 0 52 52">
    <g fill="none" fill-rule="evenodd">
        <path fill="#FFF" stroke="#D3E0FF" d="M7 .5A6.5 6.5 0 0 0 .5 7v38A6.5 6.5 0 0 0 7 51.5h38a6.5 6.5 0 0 0 6.5-6.5V7A6.5 6.5 0 0 0 45 .5H7z"/>
        <g fill="#0061FF" stroke="#0061FF" stroke-width=".1">
            <path d="M35.69 14.077c0-.657.534-1.191 1.191-1.191s1.192.534 1.192 1.191-.535 1.192-1.192 1.192a1.193 1.193 0 0 1-1.191-1.192m-9.441 11.824a1.193 1.193 0 0 1-1.192-1.191 1.193 1.193 0 0 1 2.383 0c0 .657-.534 1.191-1.191 1.191m-4.634-4.633a1.193 1.193 0 0 1-1.192-1.192 1.193 1.193 0 0 1 2.383 0c0 .657-.534 1.192-1.191 1.192m-6.538 6.537a1.193 1.193 0 0 1-1.191-1.191c0-.657.534-1.192 1.191-1.192s1.192.535 1.192 1.192c0 .657-.535 1.191-1.192 1.191m21.804-11.65a2.08 2.08 0 0 0 2.078-2.078A2.08 2.08 0 0 0 36.88 12a2.08 2.08 0 0 0-1.803 3.11l.046.08-.066.067-7.686 7.702-.082-.047a2.08 2.08 0 0 0-2.076-.004l-.081.047-1.765-1.759.047-.081a2.08 2.08 0 0 0-1.8-3.116 2.08 2.08 0 0 0-1.797 3.12l.047.081-3.664 3.664-.081-.048A2.08 2.08 0 0 0 13 26.613a2.08 2.08 0 0 0 2.077 2.078 2.08 2.08 0 0 0 1.798-3.12l-.047-.081 3.663-3.664.081.048a2.08 2.08 0 0 0 2.09-.003l.081-.047 1.76 1.754-.047.082a2.08 2.08 0 0 0 1.793 3.127 2.08 2.08 0 0 0 1.797-3.121l-.048-.081 7.749-7.764.081.048a2.08 2.08 0 0 0 1.053.286"/>
            <path d="M15.077 31.1a.443.443 0 0 0-.443.443v5.53H13.46a.443.443 0 0 0 0 .886h25.038a.443.443 0 0 0 0-.886h-1.174V21.728a.443.443 0 0 0-.885 0v15.345h-9.47v-7.164a.443.443 0 0 0-.885 0v7.164h-4.026V26.631a.443.443 0 0 0-.886 0v10.442H15.52v-5.53a.443.443 0 0 0-.443-.443"/>
        </g>
    </g>
</svg>
