<svg xmlns="http://www.w3.org/2000/svg" width="52" height="52" viewBox="0 0 52 52">
    <g fill="none" fill-rule="evenodd">
        <path fill="#FFF" stroke="#D3E0FF" d="M7 .5A6.5 6.5 0 0 0 .5 7v38A6.5 6.5 0 0 0 7 51.5h38a6.5 6.5 0 0 0 6.5-6.5V7A6.5 6.5 0 0 0 45 .5H7z"/>
        <g fill="#0061FF" stroke="#0061FF">
            <path d="M38.6 32.24c1.323 0 2.4-.502 2.4-1.12 0-.618-1.077-1.12-2.4-1.12-1.324 0-2.401.502-2.401 1.12 0 .195.11.388.316.557l.054.043-.076.036-8.884 4.153-.094-.025a4.687 4.687 0 0 0-1.204-.15c-.42 0-.833.05-1.196.148l-.093.025-2.04-.948.054-.044c.21-.17.32-.364.32-.56 0-.618-1.076-1.12-2.4-1.12-1.324 0-2.4.502-2.4 1.12 0 .197.111.392.323.562l.055.044-4.234 1.975-.094-.025a4.687 4.687 0 0 0-1.205-.151c-1.324 0-2.401.502-2.401 1.12 0 .618 1.077 1.12 2.4 1.12 1.324 0 2.401-.502 2.401-1.12 0-.198-.111-.392-.323-.562l-.055-.044 4.234-1.976.094.026c.365.099.782.15 1.205.15a4.68 4.68 0 0 0 1.21-.151l.094-.026 2.034.946-.055.044c-.215.171-.328.367-.328.566 0 .618 1.077 1.12 2.4 1.12 1.324 0 2.401-.502 2.401-1.12 0-.198-.112-.392-.324-.563l-.055-.043 8.955-4.187.094.026c.368.1.789.154 1.217.154" opacity=".3"/>
            <path stroke-width=".1" d="M35.69 16.077c0-.657.534-1.191 1.191-1.191s1.192.534 1.192 1.191-.535 1.192-1.192 1.192a1.193 1.193 0 0 1-1.191-1.192m-9.441 11.824a1.193 1.193 0 0 1-1.192-1.191 1.193 1.193 0 0 1 2.383 0c0 .657-.534 1.191-1.191 1.191m-4.634-4.633a1.193 1.193 0 0 1-1.192-1.192 1.193 1.193 0 0 1 2.383 0c0 .657-.534 1.192-1.191 1.192m-6.538 6.537a1.193 1.193 0 0 1-1.191-1.191c0-.657.534-1.192 1.191-1.192s1.192.535 1.192 1.192c0 .657-.535 1.191-1.192 1.191m21.804-11.65a2.08 2.08 0 0 0 2.078-2.078A2.08 2.08 0 0 0 36.88 14a2.08 2.08 0 0 0-1.803 3.11l.046.08-.066.067-7.686 7.702-.082-.047a2.08 2.08 0 0 0-2.076-.004l-.081.047-1.765-1.759.047-.081a2.08 2.08 0 0 0-1.8-3.116 2.08 2.08 0 0 0-1.797 3.12l.047.081-3.664 3.664-.081-.048A2.08 2.08 0 0 0 13 28.613a2.08 2.08 0 0 0 2.077 2.078 2.08 2.08 0 0 0 1.798-3.12l-.047-.081 3.663-3.664.081.048a2.08 2.08 0 0 0 2.09-.003l.081-.047 1.76 1.754-.047.082a2.08 2.08 0 0 0 1.793 3.127 2.08 2.08 0 0 0 1.797-3.121l-.048-.081 7.749-7.764.081.048a2.08 2.08 0 0 0 1.053.286"/>
        </g>
    </g>
</svg>
