<svg xmlns="http://www.w3.org/2000/svg" width="52" height="52" viewBox="0 0 52 52">
    <g fill="none" fill-rule="evenodd">
        <path fill="#FFF" stroke="#D3E0FF" d="M7 .5A6.5 6.5 0 0 0 .5 7v38A6.5 6.5 0 0 0 7 51.5h38a6.5 6.5 0 0 0 6.5-6.5V7A6.5 6.5 0 0 0 45 .5H7z"/>
        <g fill="#0061FF" stroke="#0061FF" stroke-width=".1">
            <path d="M25.97 25.687a.34.34 0 1 1 .001.68.34.34 0 0 1 0-.68m-1.218.339a1.217 1.217 0 0 0 2.435 0 1.217 1.217 0 0 0-2.435 0M12.58 38.119a.703.703 0 0 1-.703-.702.703.703 0 0 1 1.407 0 .703.703 0 0 1-.703.702m6.224-4.901a.438.438 0 0 0-.438.437v3.324h-4.268a1.582 1.582 0 0 0-3.099.438 1.58 1.58 0 0 0 3.1.437h4.705a.438.438 0 0 0 .439-.437v-3.762a.438.438 0 0 0-.439-.437M39.36 15.336a.703.703 0 0 1-.703-.701.704.704 0 0 1 1.407 0 .703.703 0 0 1-.703.701m0-2.278c-.72 0-1.328.482-1.519 1.14h-4.706a.438.438 0 0 0-.438.437v3.761a.438.438 0 0 0 .877 0v-3.324h4.267a1.58 1.58 0 0 0 3.1-.438 1.58 1.58 0 0 0-1.581-1.576M39.36 38.119a.703.703 0 0 1-.703-.702.703.703 0 0 1 1.407 0 .703.703 0 0 1-.703.702m0-2.278c-.72 0-1.328.482-1.519 1.138h-4.267v-3.324a.438.438 0 0 0-.877 0v3.762c0 .241.196.437.438.437h4.706a1.58 1.58 0 0 0 3.1-.437 1.58 1.58 0 0 0-1.581-1.576M12.58 13.933c.389 0 .704.315.704.702a.703.703 0 0 1-1.407 0c0-.387.316-.702.704-.702m0 2.278c.72 0 1.328-.482 1.518-1.139h4.268v3.324a.438.438 0 0 0 .877 0v-3.761a.438.438 0 0 0-.439-.438H14.1a1.582 1.582 0 0 0-3.099.438c0 .869.71 1.576 1.58 1.576M39.36 26.727a.703.703 0 0 1-.703-.701.703.703 0 0 1 1.407 0 .703.703 0 0 1-.703.701m0-2.278c-.72 0-1.328.482-1.519 1.14h-1.321a.438.438 0 1 0 0 .874h1.321a1.58 1.58 0 0 0 3.1-.437 1.58 1.58 0 0 0-1.581-1.577M12.58 25.324c.389 0 .704.315.704.702a.703.703 0 0 1-1.407 0c0-.387.316-.702.704-.702m0 2.278c.72 0 1.328-.482 1.518-1.139h1.322a.438.438 0 1 0 0-.874h-1.322a1.582 1.582 0 0 0-3.099.437c0 .869.71 1.576 1.58 1.576"/>
            <path d="M24.947 23.256h-.02a.975.975 0 0 0-.84.484l-1.043 1.802a.968.968 0 0 0 0 .968l1.043 1.801a.974.974 0 0 0 .84.485h2.087a.974.974 0 0 0 .841-.485l1.043-1.801a.97.97 0 0 0 0-.968l-1.043-1.802a.975.975 0 0 0-.841-.484h-.02a.438.438 0 1 0 0 .875h.02c.033 0 .064.018.081.047l1.043 1.8a.094.094 0 0 1 0 .095l-1.043 1.801a.094.094 0 0 1-.081.047h-2.086a.094.094 0 0 1-.082-.047l-1.043-1.801a.093.093 0 0 1 0-.094l1.043-1.801a.095.095 0 0 1 .082-.047h.02a.438.438 0 1 0 0-.875"/>
            <path d="M32.485 31.404l-1.12 1.117a.071.071 0 0 1-.1 0l-.99-.986a.696.696 0 0 0-.867-.095 6.37 6.37 0 0 1-2.028.838.692.692 0 0 0-.546.678v1.395a.07.07 0 0 1-.07.071h-1.586a.071.071 0 0 1-.07-.07v-1.396a.692.692 0 0 0-.546-.678 6.375 6.375 0 0 1-2.028-.838.694.694 0 0 0-.867.095l-.99.986a.07.07 0 0 1-.1 0l-1.12-1.117a.07.07 0 0 1 0-.1l.99-.987a.69.69 0 0 0 .094-.864 6.351 6.351 0 0 1-.84-2.022.693.693 0 0 0-.68-.545h-1.4a.07.07 0 0 1-.07-.07v-1.58c0-.04.031-.071.07-.071h1.4a.693.693 0 0 0 .68-.544 6.35 6.35 0 0 1 .84-2.023.69.69 0 0 0-.095-.864l-.99-.987a.07.07 0 0 1 0-.1l1.121-1.117a.071.071 0 0 1 .1 0l.99.987c.232.232.589.27.867.094a6.387 6.387 0 0 1 2.028-.837.692.692 0 0 0 .546-.678V17.7c0-.039.032-.07.07-.07h1.585c.04 0 .07.031.07.07v1.396c0 .327.225.606.547.678.72.16 1.403.442 2.028.837a.695.695 0 0 0 .867-.094l.99-.987a.072.072 0 0 1 .1 0l1.12 1.117a.07.07 0 0 1 0 .1l-.99.987a.69.69 0 0 0-.095.864c.397.623.68 1.304.84 2.023.073.32.352.544.68.544h1.4c.04 0 .071.032.071.07v1.58c0 .04-.032.071-.07.071h-1.4a.693.693 0 0 0-.68.545 6.342 6.342 0 0 1-.84 2.022.69.69 0 0 0 .094.864l.99.987a.07.07 0 0 1 0 .1m.62-.718l-.888-.886c.386-.634.671-1.319.847-2.039h1.256a.948.948 0 0 0 .948-.945v-1.58a.948.948 0 0 0-.948-.946h-1.256a7.214 7.214 0 0 0-.847-2.039l.888-.885a.945.945 0 0 0 0-1.337l-1.12-1.117a.951.951 0 0 0-1.341 0l-.888.885a7.249 7.249 0 0 0-2.045-.844V17.7a.948.948 0 0 0-.948-.945h-1.585a.948.948 0 0 0-.948.945v1.253a7.257 7.257 0 0 0-2.044.844l-.888-.885a.951.951 0 0 0-1.341 0l-1.12 1.117a.944.944 0 0 0 0 1.337l.887.885a7.216 7.216 0 0 0-.846 2.04h-1.256a.948.948 0 0 0-.949.945v1.58c0 .521.426.945.949.945h1.256c.176.72.46 1.405.846 2.039l-.888.886a.944.944 0 0 0 0 1.337l1.12 1.117a.951.951 0 0 0 1.342 0l.888-.886a7.26 7.26 0 0 0 2.044.845v1.252c0 .522.426.946.948.946h1.585a.948.948 0 0 0 .948-.946V33.1a7.254 7.254 0 0 0 2.045-.845l.888.886a.951.951 0 0 0 1.34 0l1.121-1.117a.944.944 0 0 0 0-1.337"/>
            <path d="M30.418 25.095a.439.439 0 0 0 .858-.18c-.521-2.488-2.752-4.294-5.305-4.294-2.989 0-5.42 2.425-5.42 5.405 0 2.98 2.431 5.405 5.42 5.405 2.553 0 4.784-1.806 5.305-4.295a.439.439 0 0 0-.859-.179c-.436 2.086-2.306 3.6-4.446 3.6-2.505 0-4.543-2.033-4.543-4.531 0-2.498 2.038-4.53 4.543-4.53 2.14 0 4.01 1.513 4.447 3.599"/>
        </g>
    </g>
</svg>
